<svg width="100" height="100" viewBox="0 0 100 100" fill="none" xmlns="http://www.w3.org/2000/svg">
<path d="M52.6814 45.9623L48.8695 44.0572C48.5075 43.8762 48.2793 43.5074 48.2793 43.1033C48.2793 42.6992 48.5075 42.3305 48.8695 42.1495C49.5834 41.7934 50.4236 41.7934 51.1383 42.1495L52.6899 42.9223C53.5418 43.3483 54.5782 43.0023 55.0033 42.1495C55.4293 41.2975 55.0833 40.262 54.2313 39.8361L52.6882 39.0658C52.3809 38.9235 52.0627 38.8081 51.736 38.7206V36.2068H48.276V38.7223C47.9485 38.8098 47.6303 38.9252 47.3221 39.0674C45.7933 39.8327 44.8285 41.3952 44.8285 43.105C44.8285 44.8148 45.7933 46.3773 47.3221 47.1426L51.1332 49.0486C51.4944 49.2287 51.7226 49.5975 51.7226 50.0016C51.7226 50.4057 51.4944 50.7744 51.1332 50.9554C50.4168 51.3081 49.5775 51.3081 48.8619 50.9554L47.3188 50.1826C46.4668 49.7566 45.4313 50.1026 45.0053 50.9554C44.5793 51.8074 44.9253 52.8429 45.7773 53.2688L47.3188 54.0392C47.6269 54.1814 47.9451 54.2968 48.2726 54.3843V56.8964H51.7209V54.3809C52.0484 54.2926 52.3674 54.1772 52.6755 54.0358C54.2052 53.2705 55.17 51.708 55.17 49.9982C55.17 48.2884 54.2052 46.7259 52.6755 45.9606L52.6814 45.9623Z" fill="#FCDD1E"/>
<path d="M98.2759 62.0689H93.1034V12.0689C93.0976 7.30987 89.2418 3.45414 84.4828 3.44824H15.5172C10.7582 3.45414 6.90244 7.30987 6.89655 12.0689V62.0689H1.72414C0.771989 62.0689 0 62.8409 0 63.7931V67.2413C0.00841864 73.903 5.40729 79.3019 12.069 79.3103H44.8276V91.3793C44.8276 94.2357 47.1436 96.5517 50 96.5517C52.8564 96.5517 55.1724 94.2357 55.1724 91.3793V79.3103H87.931C94.5927 79.3019 99.9916 73.903 100 67.2413V63.7931C100 62.8409 99.228 62.0689 98.2759 62.0689ZM10.3448 12.0689C10.3448 9.21249 12.6608 6.89652 15.5172 6.89652H84.4828C87.3392 6.89652 89.6552 9.21249 89.6552 12.0689V62.0689H63.6567C67.0343 59.1216 69.3536 55.1497 70.2603 50.7602C70.3117 50.5068 70.3378 50.2534 70.3807 50H79.3103V46.5517H70.6897C70.6888 45.3958 70.5895 44.2425 70.395 43.1034H79.3103V39.6551H69.4934C68.3341 36.3247 66.328 33.3538 63.6727 31.0344H84.4828C85.4349 31.0344 86.2069 30.2625 86.2069 29.3103C86.2069 28.3582 85.4349 27.5862 84.4828 27.5862H81.0345V20.6896C81.0345 19.7375 80.2625 18.9655 79.3103 18.9655H74.1379V12.0689C74.1379 11.1168 73.3659 10.3448 72.4138 10.3448H65.5172C64.5651 10.3448 63.7931 11.1168 63.7931 12.0689V15.5172H58.6207C57.6685 15.5172 56.8965 16.2892 56.8965 17.2413V27.0693C56.0202 26.7527 55.1227 26.4951 54.2118 26.2981C51.0927 25.6541 47.8659 25.745 44.788 26.5641C44.7981 26.331 44.8276 26.0986 44.8276 25.8654C44.8276 17.2952 37.8805 10.3482 29.3103 10.3482C20.7402 10.3482 13.7931 17.2952 13.7931 25.8654C13.7931 34.4356 20.7402 41.3826 29.3103 41.3826C29.5646 41.3801 29.8146 41.3212 30.0428 41.2101C29.9417 41.5881 29.8256 41.9602 29.7447 42.3499C29.4585 43.7323 29.3129 45.1399 29.3103 46.5517H20.6897V50H29.6084C29.8096 51.1735 30.1126 52.3269 30.5142 53.4482H20.6897V56.8965H32.1138C32.3082 57.2307 32.4901 57.5725 32.7031 57.8983C33.7217 59.4448 34.9433 60.8474 36.3349 62.0689H10.3448V12.0689ZM60.3448 27.5862V18.9655H63.7931V27.5862H60.3448ZM67.2414 27.5862V13.7931H70.6897V27.5862H67.2414ZM74.1379 27.5862V22.4138H77.5862V27.5862H74.1379ZM29.3103 24.1379C28.3582 24.1379 27.5862 24.9099 27.5862 25.862V37.8089C21.4313 36.9191 16.9594 31.4983 17.2565 25.287C17.5537 19.0749 22.5232 14.1054 28.7354 13.8082C34.9466 13.511 40.3674 17.983 41.2572 24.1379H29.3103ZM41.2572 27.5862C41.2429 27.6813 41.2194 27.7722 41.2034 27.8657C36.664 29.9956 33.0507 33.6998 31.0345 38.2913V27.5862H41.2572ZM44.8276 75.862H12.069C7.30991 75.8561 3.45417 72.0004 3.44828 67.2413V65.5172H33.1383L33.8808 68.4982C34.4575 70.7999 36.5268 72.4146 38.9 72.4138H44.8276V75.862ZM44.8276 68.9655H38.8967C38.1053 68.9663 37.415 68.4284 37.2222 67.6606L36.6893 65.5172H41.7379C42.7389 65.9415 43.7727 66.2875 44.8276 66.5519V68.9655ZM51.7241 91.3793C51.7241 92.3314 50.9521 93.1034 50 93.1034C49.0479 93.1034 48.2759 92.3314 48.2759 91.3793V79.3103H51.7241V91.3793ZM51.7241 75.862H48.2759V67.1572C48.8652 67.2068 49.4553 67.2481 50.0413 67.2481C50.6272 67.2481 51.1651 67.2186 51.7241 67.1723V75.862ZM46.4911 63.4311C45.2182 63.1625 43.9807 62.7517 42.8004 62.2053C35.3086 58.8143 31.1978 50.6558 32.932 42.6177C34.6663 34.5795 41.775 28.8406 49.9983 28.8406C58.2216 28.8406 65.3303 34.5795 67.0646 42.6177C68.7988 50.6558 64.688 58.8143 57.1963 62.2053L57.171 62.2171C53.8355 63.7594 50.0918 64.1854 46.4945 63.4311H46.4911ZM63.3107 65.5172L62.7744 67.6589C62.5825 68.4267 61.8922 68.9663 61.1 68.9655H55.1724V66.5813C56.2264 66.3086 57.2569 65.9524 58.2553 65.5172H63.3107ZM96.5517 67.2413C96.5458 72.0004 92.6901 75.8561 87.931 75.862H55.1724V72.4138H61.0966C63.4698 72.4146 65.5391 70.7991 66.1158 68.4966L66.8617 65.5172H96.5517V67.2413Z" fill="#FCDD1E"/>
</svg>
