<svg width="46" height="46" viewBox="0 0 46 46" fill="none" xmlns="http://www.w3.org/2000/svg">
<g clip-path="url(#clip0)">
<path d="M39.7741 30.6251C39.7727 30.6237 39.7727 30.6223 39.7712 30.6208C39.7698 30.6194 39.7684 30.6194 39.7669 30.618L37.74 28.5911C37.7393 28.5904 37.7393 28.5896 37.7386 28.5889C37.7379 28.5882 37.7372 28.5882 37.7365 28.5875L30.1141 20.9659L42.325 8.75502C42.335 8.74495 42.34 8.73058 42.3494 8.71908C42.3868 8.67667 42.417 8.62995 42.4443 8.57892C42.4558 8.5588 42.4723 8.54227 42.4809 8.5207C42.4845 8.51208 42.4852 8.50417 42.4881 8.49555C42.491 8.48692 42.4975 8.48045 42.5003 8.47255L44.5135 2.39408C44.5229 2.36748 44.5179 2.34017 44.5236 2.31358C44.5344 2.26542 44.5409 2.21798 44.5409 2.16839C44.5409 2.1188 44.5337 2.07136 44.5236 2.0232C44.5179 1.99661 44.5229 1.9693 44.5135 1.9427C44.5078 1.92617 44.4949 1.91467 44.4884 1.89814C44.4697 1.85214 44.4438 1.81261 44.4158 1.77092C44.3899 1.73283 44.3662 1.69617 44.3339 1.66527C44.303 1.63436 44.2677 1.61064 44.2304 1.58548C44.1887 1.55745 44.1484 1.53158 44.1017 1.51217C44.0859 1.50498 44.0737 1.49205 44.0564 1.4863C44.0298 1.47695 44.0032 1.48198 43.9759 1.47623C43.9278 1.46545 43.881 1.45827 43.83 1.45827C43.7811 1.45827 43.7351 1.46545 43.6877 1.4748C43.6604 1.48055 43.6324 1.47552 43.605 1.48486L37.5266 3.49736C37.5208 3.49952 37.5165 3.50455 37.5115 3.50598C37.3792 3.54983 37.2686 3.62817 37.183 3.73311L25.0318 15.8836L13.3442 4.19598C13.3435 4.19527 13.3435 4.19455 13.3428 4.19383C13.3421 4.19311 13.3414 4.19311 13.3406 4.19239L9.35805 0.209797C9.07702 -0.0712344 8.62277 -0.0712344 8.34173 0.209797L0.209797 8.34173C-0.0712344 8.62277 -0.0712344 9.07702 0.209797 9.35805L15.8836 25.0318L9.78283 31.1333C9.78211 31.134 9.78139 31.134 9.78067 31.1347C9.77995 31.1355 9.77995 31.1362 9.77923 31.1369L7.74948 33.1666C7.74877 33.1674 7.74805 33.1674 7.74733 33.1681C7.74661 33.1688 7.74661 33.1695 7.74589 33.1702L1.86005 39.0561C1.85861 39.0575 1.85861 39.059 1.85717 39.0597C1.30014 39.6203 1.30014 40.5302 1.86005 41.0894L4.90898 44.1384C5.1893 44.4187 5.5573 44.5588 5.9253 44.5588C6.2933 44.5588 6.6613 44.4187 6.94161 44.1384L20.9666 30.1134L36.6411 45.7879C36.7805 45.9288 36.9645 45.9992 37.1485 45.9992C37.3325 45.9992 37.5165 45.9288 37.6567 45.7886L45.7886 37.6567C46.0696 37.3756 46.0696 36.9214 45.7886 36.6404L39.7741 30.6251ZM14.3548 34.6933L11.3059 31.6443L25.5393 17.4102C25.54 17.4095 25.5407 17.4095 25.5414 17.4088C25.5421 17.408 25.5421 17.4073 25.5429 17.4066L37.0141 5.93536V8.24614C37.0141 8.64361 37.3354 8.96489 37.7329 8.96489H40.0839L14.3548 34.6933ZM40.5956 3.99545L42.0022 5.40205L41.2986 7.52739H38.4502V4.70558L40.5956 3.99545ZM42.509 3.8747L42.1237 3.49017L42.6994 3.2997L42.509 3.8747ZM1.73427 8.84989L8.84989 1.73427L9.78498 2.66936L9.27683 3.17752C8.9958 3.45855 8.9958 3.9128 9.27683 4.19383C9.41698 4.33398 9.60098 4.40442 9.78498 4.40442C9.96898 4.40442 10.153 4.33398 10.2931 4.19383L10.8013 3.68567L11.8176 4.70198L10.2924 6.22789C10.0114 6.50892 10.0114 6.96317 10.2924 7.2442C10.4326 7.38436 10.6166 7.4548 10.8006 7.4548C10.9846 7.4548 11.1686 7.38436 11.3087 7.2442L12.8339 5.7183L13.8517 6.73605L13.3428 7.2442C13.0618 7.52523 13.0618 7.97949 13.3428 8.26052C13.483 8.40067 13.667 8.47111 13.851 8.47111C14.035 8.47111 14.219 8.40067 14.3591 8.26052L14.868 7.75236L15.8843 8.76867L14.3584 10.2946C14.0774 10.5756 14.0774 11.0299 14.3584 11.3109C14.4985 11.451 14.6825 11.5215 14.8665 11.5215C15.0505 11.5215 15.2345 11.451 15.3747 11.3109L16.9006 9.78498L17.9169 10.8013L17.4088 11.3095C17.1277 11.5905 17.1277 12.0447 17.4088 12.3258C17.5489 12.4659 17.7329 12.5364 17.9169 12.5364C18.1009 12.5364 18.2849 12.4659 18.4251 12.3258L18.9332 11.8176L19.9495 12.8339L18.4236 14.3598C18.1426 14.6409 18.1426 15.0951 18.4236 15.3761C18.5638 15.5163 18.7478 15.5867 18.9318 15.5867C19.1158 15.5867 19.2998 15.5163 19.44 15.3761L20.9659 13.8502L21.9822 14.8665L21.474 15.3747C21.193 15.6557 21.193 16.11 21.474 16.391C21.6142 16.5312 21.7982 16.6016 21.9822 16.6016C22.1662 16.6016 22.3502 16.5312 22.4903 16.391L22.9992 15.8836L24.0155 16.8999L16.8999 24.0155L1.73427 8.84989ZM5.92458 43.1228L2.87564 40.0738C2.87636 40.0731 2.87636 40.0724 2.87708 40.0717L6.22142 36.7273L9.27036 39.777L5.92458 43.1228ZM10.2867 38.7607L7.23773 35.711L8.25548 34.6933C8.39564 34.8334 8.57892 34.9039 8.76292 34.9039C8.94692 34.9039 9.13092 34.8334 9.27108 34.6933C9.55211 34.4122 9.55211 33.9587 9.27108 33.6777L10.2888 32.6606L13.3378 35.7096L12.3207 36.7266C12.0397 36.4456 11.5855 36.4456 11.3044 36.7266C11.0234 37.0076 11.0234 37.4619 11.3044 37.7429L10.2867 38.7607ZM37.1485 44.2641L21.9822 29.0978L29.0978 21.9822L30.1148 22.9992L29.606 23.5074C29.3249 23.7877 29.3249 24.2426 29.606 24.5237C29.7461 24.6638 29.9301 24.7343 30.1141 24.7343C30.2981 24.7343 30.4821 24.6638 30.6223 24.5237L31.1311 24.0155L32.1475 25.0318L30.6215 26.5577C30.3405 26.8388 30.3405 27.293 30.6215 27.5741C30.7617 27.7142 30.9457 27.7846 31.1297 27.7846C31.3137 27.7846 31.4977 27.7142 31.6379 27.5741L33.1638 26.0481L34.1801 27.0645L33.6719 27.5726C33.3909 27.8536 33.3909 28.3079 33.6719 28.5889C33.8121 28.7291 33.9961 28.7995 34.1801 28.7995C34.3641 28.7995 34.5481 28.7291 34.6882 28.5889L35.1964 28.0808L36.2127 29.0971L34.6875 30.623C34.4065 30.904 34.4065 31.3583 34.6875 31.6393C34.8277 31.7795 35.0117 31.8499 35.1957 31.8499C35.3797 31.8499 35.5637 31.7795 35.7038 31.6393L37.229 30.1134L38.2453 31.1297L37.7372 31.6393C37.4569 31.9211 37.4569 32.3753 37.7379 32.6563C37.878 32.7958 38.062 32.8662 38.246 32.8662C38.43 32.8662 38.6148 32.7958 38.7549 32.6556L39.2631 32.1475L40.2787 33.1631L38.7528 34.6882C38.4717 34.9686 38.4717 35.4235 38.7528 35.7045C38.8929 35.8447 39.0769 35.9151 39.2609 35.9151C39.4449 35.9151 39.6289 35.8447 39.7691 35.7045L41.295 34.1794L42.312 35.1964L41.8031 35.7045C41.5221 35.9856 41.5221 36.4398 41.8031 36.7209C41.9433 36.861 42.1273 36.9315 42.3113 36.9315C42.4953 36.9315 42.6793 36.861 42.8195 36.7209L43.3283 36.2127L44.2634 37.1478L37.1485 44.2641Z" fill="#FCDD1E"/>
</g>
<defs>
<clipPath id="clip0">
<rect width="46" height="46" fill="white"/>
</clipPath>
</defs>
</svg>
