<svg width="68" height="68" viewBox="0 0 68 68" fill="none" xmlns="http://www.w3.org/2000/svg">
<g clip-path="url(#clip0)">
<path d="M18.1907 42.7968C18.8257 42.4305 19.0431 41.6175 18.6768 40.9825C18.3101 40.348 17.4976 40.1301 16.8626 40.4964C16.2276 40.8632 16.0097 41.6761 16.3765 42.3106C16.7428 42.9457 17.5557 43.1636 18.1907 42.7968Z" fill="#FCDD1E"/>
<path d="M12.7478 51.9634L19.4362 63.5487C20.8795 66.0514 24.1261 66.978 26.6937 65.4937C29.2342 64.0255 30.1074 60.7794 28.6376 58.2368L24.6532 51.3347L28.1038 49.3425C28.7388 48.9752 28.9567 48.1632 28.5899 47.5282L26.8628 44.5368C27.0688 44.4969 28.4228 44.2313 52.3016 39.547C55.2536 39.3867 57.0221 36.1582 55.5311 33.5772L51.1172 25.9322L53.9379 21.6599C54.2149 21.2397 54.2315 20.6996 53.9799 20.2638L51.3237 15.6631C51.072 15.2273 50.5942 14.972 50.0936 15.0016L44.9839 15.3082L40.0839 6.82068C39.3742 5.59113 38.1026 4.84665 36.6831 4.82901C36.666 4.82849 36.6494 4.82849 36.6323 4.82849C35.2606 4.82849 34.0155 5.51123 33.2778 6.66556L15.9281 28.7674L4.64887 35.2794C0.212625 37.8397 -1.32406 43.5309 1.24607 47.9791C3.59416 52.0464 8.54453 53.6464 12.7478 51.9634ZM26.3378 59.5654C27.0714 60.8344 26.6371 62.4582 25.3645 63.1934C24.0877 63.9316 22.4618 63.4782 21.7366 62.2211L15.0959 50.7178L19.6966 48.0616C27.3821 61.375 26.2143 59.3522 26.3378 59.5654ZM23.3251 49.0338L21.997 46.7334L24.2973 45.4053L25.6255 47.7057L23.3251 49.0338ZM49.4337 17.702L51.2692 20.8812L49.6324 23.36L46.4687 17.8799L49.4337 17.702ZM35.4992 8.12183C35.8557 7.5387 36.4212 7.47852 36.6505 7.48474C36.8772 7.48734 37.4422 7.55789 37.783 8.14828L53.2308 34.9053C53.734 35.7764 53.1223 36.8716 52.1133 36.8965C51.9322 36.9006 51.8487 36.9333 51.3849 37.02L35.0443 8.71689C35.3872 8.27591 35.4313 8.23337 35.4992 8.12183ZM33.2767 10.9685L48.6295 37.5605L25.4589 42.1052L18.4136 29.9026L33.2767 10.9685ZM3.54643 46.6509C2.9633 45.6419 2.65513 44.4964 2.65513 43.3374C2.65513 40.9685 3.92826 38.7626 5.977 37.5797L16.3286 31.6032L22.9692 43.1049L12.6176 49.082C9.44621 50.9124 5.37727 49.8218 3.54643 46.6509Z" fill="#FCDD1E"/>
<path d="M14.0761 43.6387C13.7093 43.0037 12.8969 42.7858 12.2619 43.1526L9.96155 44.4807C9.32757 44.847 8.51358 44.6286 8.14731 43.9946C7.78052 43.3596 6.96808 43.1417 6.33307 43.5085C5.69806 43.8753 5.48016 44.6877 5.84695 45.3228C6.94006 47.2164 9.37842 47.8841 11.2897 46.7811L13.59 45.453C14.225 45.0862 14.4429 44.2743 14.0761 43.6387Z" fill="#FCDD1E"/>
<path d="M66.026 7.66937L58.6254 11.7876C57.9847 12.1445 57.7538 12.9533 58.1107 13.5941C58.4666 14.2342 59.2749 14.4662 59.9172 14.1087L67.3173 9.99047C67.9586 9.63354 68.1889 8.82473 67.832 8.18402C67.4756 7.54278 66.6668 7.31243 66.026 7.66937Z" fill="#FCDD1E"/>
<path d="M65.25 21.4248L60.1185 20.05C59.4098 19.8601 58.6814 20.2804 58.4916 20.989C58.3017 21.6977 58.7224 22.4256 59.4311 22.6155L64.5631 23.9903C65.2759 24.1817 66.0007 23.7548 66.1895 23.0513C66.3794 22.3426 65.9586 21.6142 65.25 21.4248Z" fill="#FCDD1E"/>
<path d="M52.3546 2.84414L50.9782 7.97609C50.7884 8.68477 51.2086 9.41265 51.9173 9.60305C52.6254 9.79241 53.3538 9.37322 53.5442 8.66402L54.9201 3.53206C55.1099 2.82339 54.6897 2.09499 53.981 1.90511C53.2729 1.71523 52.5445 2.13546 52.3546 2.84414Z" fill="#FCDD1E"/>
</g>
<defs>
<clipPath id="clip0">
<rect width="68" height="68" fill="white"/>
</clipPath>
</defs>
</svg>
