<svg width="36" height="36" viewBox="0 0 36 36" fill="none" xmlns="http://www.w3.org/2000/svg">
<path d="M25.8106 13.1896C25.2256 12.6038 24.2746 12.6038 23.6896 13.1896L17.2501 19.6283L14.5606 16.9396C13.9756 16.3538 13.0246 16.3538 12.4396 16.9396C11.8538 17.5253 11.8538 18.4748 12.4396 19.0606L16.1896 22.8106C16.4821 23.1038 16.8661 23.2501 17.2501 23.2501C17.6341 23.2501 18.0181 23.1038 18.3106 22.8106L25.8106 15.3106C26.3963 14.7248 26.3963 13.7753 25.8106 13.1896Z" fill="#FCDD1E"/>
<path d="M34.5 16.5C33.672 16.5 33 17.172 33 18C33 26.271 26.271 33 18 33C9.729 33 3 26.271 3 18C3 9.729 9.729 3 18 3C22.0268 3 25.8068 4.5735 28.6448 7.431C29.2275 8.01975 30.1777 8.02275 30.7658 7.4385C31.3538 6.855 31.3567 5.9055 30.7732 5.3175C27.3682 1.8885 22.8315 0 18 0C8.0745 0 0 8.0745 0 18C0 27.9255 8.0745 36 18 36C27.9255 36 36 27.9255 36 18C36 17.172 35.328 16.5 34.5 16.5Z" fill="#FCDD1E"/>
</svg>
