<svg width="100" height="100" viewBox="0 0 100 100" fill="none" xmlns="http://www.w3.org/2000/svg">
<path d="M30.46 50.7812C31.5386 50.7812 32.4131 49.9068 32.4131 48.8281C32.4131 47.7494 31.5386 46.875 30.46 46.875C29.3813 46.875 28.5068 47.7494 28.5068 48.8281C28.5068 49.9068 29.3813 50.7812 30.46 50.7812Z" fill="#FCDD1E"/>
<path d="M22.6475 35.1562C23.7261 35.1562 24.6006 34.2818 24.6006 33.2031C24.6006 32.1244 23.7261 31.25 22.6475 31.25C21.5688 31.25 20.6943 32.1244 20.6943 33.2031C20.6943 34.2818 21.5688 35.1562 22.6475 35.1562Z" fill="#FCDD1E"/>
<path d="M18.7412 88.2812C19.8199 88.2812 20.6943 87.4068 20.6943 86.3281C20.6943 85.2494 19.8199 84.375 18.7412 84.375C17.6625 84.375 16.7881 85.2494 16.7881 86.3281C16.7881 87.4068 17.6625 88.2812 18.7412 88.2812Z" fill="#FCDD1E"/>
<path d="M73.4645 64.7619C73.4586 64.7619 73.4524 64.7619 73.4463 64.7619C72.6012 64.7541 71.7301 64.2439 70.9276 63.2863C70.2344 62.4598 69.0028 62.3514 68.176 63.0443C67.3495 63.7373 67.2409 64.9691 67.9338 65.7959C68.9665 67.0277 70.1835 67.8902 71.4756 68.3307V70.7031C71.4756 71.7818 72.3502 72.6562 73.4288 72.6562C74.5073 72.6562 75.3819 71.7818 75.3819 70.7031V68.3475C77.6354 67.5684 79.3213 65.4152 79.3213 62.8086C79.3213 59.5777 76.6928 56.9492 73.462 56.9492C72.385 56.9492 71.5088 56.073 71.5088 54.9961C71.5088 53.9279 72.3772 53.0516 73.4424 53.043C74.1454 53.0301 74.8794 53.391 75.5743 54.0637C76.3497 54.8139 77.586 54.7938 78.3362 54.0186C79.0864 53.2436 79.0661 52.007 78.2913 51.2568C77.2885 50.2865 76.2856 49.7408 75.3819 49.4463V47.2656C75.3819 46.1869 74.5073 45.3125 73.4288 45.3125C72.3502 45.3125 71.4756 46.1869 71.4756 47.2656V49.4861C69.2215 50.3043 67.6026 52.4709 67.6026 54.9963C67.6026 58.2271 70.2311 60.8557 73.462 60.8557C74.5389 60.8557 75.4151 61.7318 75.4151 62.8088C75.4149 63.882 74.5461 64.7619 73.4645 64.7619Z" fill="#FCDD1E"/>
<path d="M26.5536 62.5C38.4001 62.5 48.038 52.8621 48.038 41.0156C48.038 37.5701 47.2339 34.2521 45.6954 31.25H53.9147C59.2274 31.25 64.0278 28.1607 66.2676 23.4375H92.9772C94.0557 23.4375 94.9303 22.5631 94.9303 21.4844V1.95312C94.9303 0.874414 94.0557 0 92.9772 0H24.2194C23.6323 0 23.0762 0.264258 22.7053 0.719336L5.50808 21.8227C4.87526 22.5994 4.93268 23.7291 5.64108 24.4377C6.93679 25.7334 8.53854 26.601 10.2419 27.0135C6.93561 30.8475 5.06921 35.7654 5.06921 41.0156C5.06921 52.8621 14.7071 62.5 26.5536 62.5ZM83.1942 3.90625H91.0243V19.5312H83.1942V3.90625ZM75.3817 3.90625H79.288V19.5312H75.3817V3.90625ZM9.81921 22.7162L25.1475 3.90625H71.4755V19.5312H67.4454C67.5376 18.8877 67.5868 18.2359 67.5868 17.5781C67.5868 16.4994 66.7122 15.625 65.6337 15.625C64.5551 15.625 63.6805 16.4994 63.6805 17.5781C63.6805 18.6973 63.4936 19.7918 63.1239 20.8342C61.7493 24.7277 58.0485 27.3438 53.9149 27.3438H40.5753C41.4089 24.9895 43.6526 23.4375 46.1024 23.4375H53.9149C54.9934 23.4375 55.868 22.5631 55.868 21.4844C55.868 16.0996 51.4872 11.7188 46.1024 11.7188H27.4559C26.938 11.7188 26.4413 11.9246 26.0749 12.2908L16.6903 21.6754C14.8458 23.5199 12.0594 23.8893 9.81921 22.7162ZM38.5053 23.1648C37.113 22.232 35.6169 21.465 34.0532 20.8814L39.31 15.625H46.1024C48.6487 15.625 50.821 17.2576 51.627 19.5312H46.1024C43.126 19.5312 40.3372 20.9062 38.5053 23.1648ZM33.7854 15.625L29.6555 19.7549C28.6331 19.6064 27.5938 19.5312 26.5536 19.5312C25.7753 19.5312 25.0001 19.5758 24.2309 19.6592L28.2651 15.625H33.7854ZM26.5536 23.4375C30.1911 23.4375 33.7096 24.5494 36.696 26.6611C36.4571 27.5133 36.3366 28.3949 36.3366 29.2969C36.3366 30.3756 37.2112 31.25 38.2897 31.25H41.1688C43.1083 34.1416 44.1315 37.4971 44.1315 41.0156C44.1315 50.7082 36.246 58.5938 26.5534 58.5938C16.8608 58.5938 8.97526 50.7082 8.97526 41.0156C8.97546 31.1191 17.0092 23.4375 26.5536 23.4375Z" fill="#FCDD1E"/>
<path d="M20.1219 50.2091L35.7469 34.5841C36.5096 33.8214 36.5096 32.5847 35.7469 31.8218C34.984 31.0591 33.7477 31.0591 32.9846 31.8218L17.3596 47.4468C16.5969 48.2095 16.5969 49.4462 17.3596 50.2091C18.1225 50.9718 19.359 50.972 20.1219 50.2091Z" fill="#FCDD1E"/>
<path d="M53.8975 100C54.9761 100 55.8506 99.1256 55.8506 98.0469C55.8506 96.9682 54.9761 96.0938 53.8975 96.0938C52.8188 96.0938 51.9443 96.9682 51.9443 98.0469C51.9443 99.1256 52.8188 100 53.8975 100Z" fill="#FCDD1E"/>
<path d="M7.02246 100H45.1084C46.1869 100 47.0615 99.1256 47.0615 98.0469C47.0615 96.9682 46.1869 96.0938 45.1084 96.0938H28.5068V80.4668H32.5543C32.4621 81.1127 32.4131 81.7645 32.4131 82.4219C32.4131 83.5006 33.2877 84.375 34.3662 84.375C35.4447 84.375 36.3193 83.5006 36.3193 82.4219C36.3193 81.3037 36.5059 80.2084 36.8736 79.1666C38.2504 75.2725 41.952 72.6562 46.085 72.6543H59.4232C58.5777 75.0346 56.3227 76.5625 53.8975 76.5625H46.085C45.0064 76.5625 44.1318 77.4369 44.1318 78.5156C44.1318 83.9004 48.5127 88.2812 53.8975 88.2812H72.5439C73.0619 88.2812 73.5586 88.0754 73.925 87.7092L83.3098 78.3244C85.1516 76.4826 87.9352 76.0979 90.1822 77.2816L74.8504 96.0938H62.6865C61.608 96.0938 60.7334 96.9682 60.7334 98.0469C60.7334 99.1256 61.608 100 62.6865 100H75.7783C76.3654 100 76.9215 99.7359 77.2924 99.2807L94.4916 78.1771C95.1246 77.4002 95.067 76.2701 94.358 75.5617C93.0484 74.2529 91.4406 73.3824 89.734 72.9721C93.1906 68.9482 94.9131 63.9648 94.9131 58.9844C94.9131 47.1379 85.2752 37.5 73.4287 37.5C61.5822 37.5 51.9443 47.1379 51.9443 58.9844C51.9443 62.4299 52.7484 65.7479 54.2869 68.75H46.085C40.7742 68.75 35.974 71.8381 33.7311 76.5625H7.02246C5.94395 76.5625 5.06934 77.4369 5.06934 78.5156V98.0469C5.06934 99.1256 5.94395 100 7.02246 100ZM60.69 84.375H53.8975C51.3512 84.375 49.1789 82.7424 48.3729 80.4688H53.8975C56.8691 80.4688 59.6555 79.0963 61.4863 76.8434C62.8781 77.7742 64.3752 78.54 65.9418 79.1232L60.69 84.375ZM71.7348 84.375H66.2143L70.342 80.2473C71.3629 80.3941 72.3973 80.4688 73.4289 80.4688C74.2141 80.4688 74.9955 80.424 75.7707 80.3393L71.7348 84.375ZM73.4287 41.4062C83.1213 41.4062 91.0068 49.2918 91.0068 58.9844C91.0068 68.9883 82.8781 76.5625 73.4287 76.5625C69.7012 76.5625 66.2035 75.399 63.2998 73.3506C63.5412 72.4953 63.6631 71.6098 63.6631 70.7031C63.6631 69.6244 62.7885 68.75 61.71 68.75H58.8133C56.8738 65.8584 55.8506 62.5029 55.8506 58.9844C55.8506 49.2918 63.7361 41.4062 73.4287 41.4062ZM8.97559 80.4688H24.6006V96.0938H8.97559V80.4688Z" fill="#FCDD1E"/>
</svg>
