<svg width="68" height="68" viewBox="0 0 68 68" fill="none" xmlns="http://www.w3.org/2000/svg">
<g clip-path="url(#clip0)">
<path d="M12.75 50.875C10.9926 50.875 9.5625 52.3051 9.5625 54.0625C9.5625 55.8199 10.9926 57.25 12.75 57.25C14.5074 57.25 15.9375 55.8199 15.9375 54.0625C15.9375 52.3051 14.5074 50.875 12.75 50.875ZM12.75 55.125C12.1646 55.125 11.6875 54.6479 11.6875 54.0625C11.6875 53.4771 12.1646 53 12.75 53C13.3354 53 13.8125 53.4771 13.8125 54.0625C13.8125 54.6479 13.3354 55.125 12.75 55.125Z" fill="white"/>
<path d="M23.375 50.875C21.6176 50.875 20.1875 52.3051 20.1875 54.0625C20.1875 55.8199 21.6176 57.25 23.375 57.25C25.1324 57.25 26.5625 55.8199 26.5625 54.0625C26.5625 52.3051 25.1324 50.875 23.375 50.875ZM23.375 55.125C22.7896 55.125 22.3125 54.6479 22.3125 54.0625C22.3125 53.4771 22.7896 53 23.375 53C23.9604 53 24.4375 53.4771 24.4375 54.0625C24.4375 54.6479 23.9604 55.125 23.375 55.125Z" fill="white"/>
<path d="M34 50.875C32.2426 50.875 30.8125 52.3051 30.8125 54.0625C30.8125 55.8199 32.2426 57.25 34 57.25C35.7574 57.25 37.1875 55.8199 37.1875 54.0625C37.1875 52.3051 35.7574 50.875 34 50.875ZM34 55.125C33.4146 55.125 32.9375 54.6479 32.9375 54.0625C32.9375 53.4771 33.4146 53 34 53C34.5854 53 35.0625 53.4771 35.0625 54.0625C35.0625 54.6479 34.5854 55.125 34 55.125Z" fill="white"/>
<path d="M55.25 17.9375C57.0074 17.9375 58.4375 16.5074 58.4375 14.75C58.4375 12.9926 57.0074 11.5625 55.25 11.5625C53.4926 11.5625 52.0625 12.9926 52.0625 14.75C52.0625 16.5074 53.4926 17.9375 55.25 17.9375ZM55.25 13.6875C55.8354 13.6875 56.3125 14.1646 56.3125 14.75C56.3125 15.3354 55.8354 15.8125 55.25 15.8125C54.6646 15.8125 54.1875 15.3354 54.1875 14.75C54.1875 14.1646 54.6646 13.6875 55.25 13.6875Z" fill="white"/>
<path d="M44.625 17.9375C46.3824 17.9375 47.8125 16.5074 47.8125 14.75C47.8125 12.9926 46.3824 11.5625 44.625 11.5625C42.8676 11.5625 41.4375 12.9926 41.4375 14.75C41.4375 16.5074 42.8676 17.9375 44.625 17.9375ZM44.625 13.6875C45.2104 13.6875 45.6875 14.1646 45.6875 14.75C45.6875 15.3354 45.2104 15.8125 44.625 15.8125C44.0396 15.8125 43.5625 15.3354 43.5625 14.75C43.5625 14.1646 44.0396 13.6875 44.625 13.6875Z" fill="white"/>
<path d="M34 11.5625C32.2426 11.5625 30.8125 12.9926 30.8125 14.75C30.8125 16.5074 32.2426 17.9375 34 17.9375C35.7574 17.9375 37.1875 16.5074 37.1875 14.75C37.1875 12.9926 35.7574 11.5625 34 11.5625ZM34 15.8125C33.4146 15.8125 32.9375 15.3354 32.9375 14.75C32.9375 14.1646 33.4146 13.6875 34 13.6875C34.5854 13.6875 35.0625 14.1646 35.0625 14.75C35.0625 15.3354 34.5854 15.8125 34 15.8125Z" fill="white"/>
<path d="M62.8065 54.8689C64.0879 53.3134 64.8125 51.3584 64.8125 49.311V42.375C64.8125 36.5164 60.0461 31.75 54.1875 31.75C48.3289 31.75 43.5625 36.5164 43.5625 42.375V46.625H30.0719L24.3759 42.8276C23.9307 42.5312 23.4143 42.375 22.8809 42.375C21.3956 42.375 20.1875 43.5831 20.1875 45.0684V46.625H8.5C4.39875 46.625 1.0625 49.9613 1.0625 54.0625C1.0625 58.1637 4.39875 61.5 8.5 61.5H41.5055C41.4651 61.8496 41.4375 62.2034 41.4375 62.5625V68.9375H66.9375V62.5625C66.9375 59.3941 65.3331 56.5402 62.8065 54.8689ZM45.6875 42.375C45.6875 37.6883 49.5008 33.875 54.1875 33.875C58.8742 33.875 62.6875 37.6883 62.6875 42.375V49.311C62.6875 51.0269 62.0213 52.6621 60.8462 53.8893C60.5529 53.7831 60.2544 53.6874 59.9462 53.6099C59.2737 53.4409 58.7074 53.0244 58.3111 52.4783C59.6434 51.7601 60.5625 50.3682 60.5625 48.75V45.1396C60.5625 43.038 58.9932 41.2296 56.9128 40.9321L55.3679 40.7111C54.0897 40.5284 53.125 39.417 53.125 38.125H51C51 38.5404 51.0552 38.9463 51.1583 39.3341L49.5125 40.5687C48.4479 41.3667 47.8125 42.6385 47.8125 43.9688V48.75C47.8125 50.3671 48.7316 51.7601 50.065 52.4783C49.6676 53.0255 49.1013 53.442 48.4266 53.6109C48.1196 53.6874 47.821 53.7841 47.5288 53.8893C46.3537 52.6621 45.6875 51.0269 45.6875 49.311V42.375ZM56.3125 50.875H52.0625C50.8906 50.875 49.9375 49.9219 49.9375 48.75V43.9688C49.9375 43.3036 50.2552 42.6683 50.7875 42.2688L52.1698 41.2317C52.8966 42.0658 53.9112 42.6502 55.0672 42.8149L56.6121 43.0359C57.6523 43.1846 58.4364 44.0899 58.4364 45.1396V48.75C58.4375 49.9219 57.4844 50.875 56.3125 50.875ZM57.9296 55.0081L56.9999 57.25H51.3751L50.4464 55.0081C51.2104 54.5141 51.8309 53.8224 52.2357 53H56.1404C56.5452 53.8224 57.1657 54.5141 57.9296 55.0081ZM8.5 59.375C5.57069 59.375 3.1875 56.9918 3.1875 54.0625C3.1875 51.1332 5.57069 48.75 8.5 48.75H22.3125V45.0684C22.3125 44.6424 22.8406 44.3587 23.1965 44.5956L29.4281 48.75H43.5625V49.311C43.5625 51.3584 44.2871 53.3134 45.5685 54.8689C43.9301 55.9516 42.6849 57.5347 42.0081 59.3761H8.5V59.375ZM43.5625 66.8125V62.5625C43.5625 59.4611 45.5696 56.7719 48.4861 55.8284L53.0379 66.8125H43.5625ZM52.2559 59.375H56.1202L54.1875 64.0373L52.2559 59.375ZM64.8125 66.8125H55.3371L59.8889 55.8284C62.8044 56.7708 64.8125 59.4611 64.8125 62.5625V66.8125Z" fill="white"/>
<path d="M26.5625 33.875C26.5625 29.6324 23.6884 25.9519 19.5734 24.9234L17.8766 24.4995L17.7278 23.9045C18.5141 23.5358 19.1611 22.9344 19.5968 22.1886H37.9291L43.6252 25.9859C44.0693 26.2813 44.5857 26.4375 45.1191 26.4375C46.6044 26.4375 47.8125 25.2294 47.8125 23.7441V22.1875H59.5C63.6012 22.1875 66.9375 18.8513 66.9375 14.75C66.9375 10.6488 63.6012 7.3125 59.5 7.3125H23.5652C22.2647 4.79225 19.6392 3.0625 16.6132 3.0625H15.4073C14.1971 3.0625 12.9869 3.34832 11.9074 3.88913L10.5134 4.58719C8.93988 5.37344 6.99337 5.37238 5.42513 4.58719L2.59994 3.17407C2.27056 3.01044 1.88063 3.02744 1.56612 3.22082C1.25269 3.41525 1.0625 3.75632 1.0625 4.125V7.49207C1.0625 10.2153 1.989 12.829 3.67094 14.9476C3.37238 15.5288 3.1875 16.178 3.1875 16.875C3.1875 19.2189 5.09363 21.125 7.4375 21.125H7.58838C7.90925 22.3586 8.7635 23.3722 9.89719 23.9034L9.74844 24.4984L8.05163 24.9224C3.93656 25.9519 1.0625 29.6324 1.0625 33.875V40.25H26.5625V33.875ZM24.4375 16.875C24.4375 15.9347 24.1209 15.0741 23.6024 14.3696C24.1411 13.288 24.4375 12.1033 24.4375 10.8868C24.4375 10.3906 24.3865 9.90819 24.2973 9.4375H59.5C62.4293 9.4375 64.8125 11.8207 64.8125 14.75C64.8125 17.6793 62.4293 20.0625 59.5 20.0625H45.6875V23.7441C45.6875 24.1691 45.1584 24.4517 44.8035 24.2169L38.5719 20.0625H22.9691C23.8616 19.2826 24.4375 18.15 24.4375 16.875ZM20.1875 19V17.3733C20.1875 16.4256 19.9251 15.5309 19.4767 14.75H20.1875C21.3594 14.75 22.3125 15.7031 22.3125 16.875C22.3125 18.0469 21.3594 19 20.1875 19ZM7.4375 15.2186V19C6.26556 19 5.3125 18.0469 5.3125 16.875C5.3125 15.7031 6.26556 14.75 7.4375 14.75H7.47469C7.45237 14.9041 7.4375 15.0603 7.4375 15.2186ZM7.4375 12.625C6.57475 12.625 5.77362 12.8864 5.10213 13.3305C3.86431 11.6422 3.1875 9.60644 3.1875 7.49207V5.84413L4.47419 6.48694C6.63 7.56644 9.30219 7.56644 11.4633 6.48694L12.8584 5.78888C13.6446 5.39575 14.5265 5.1875 15.4073 5.1875H16.6132C19.7561 5.1875 22.3125 7.74388 22.3125 10.8868C22.3125 11.6135 22.1627 12.3233 21.8971 12.9905C21.3732 12.7589 20.7963 12.625 20.1875 12.625H17.2136C16.7216 12.3806 16.1936 12.1958 15.6262 12.115L12.75 11.7038V9.4375H10.625V11.8589L9.61669 12.1947C9.31069 12.2967 9.03125 12.4454 8.77838 12.625H7.4375ZM9.5625 20.0625V15.2186C9.5625 14.7606 9.85469 14.3548 10.2893 14.2103L11.7863 13.7119L15.3266 14.2177C16.8863 14.4408 18.0636 15.7976 18.0636 17.3733V20.0625C18.0636 21.2344 17.1105 22.1875 15.9386 22.1875H11.6886C10.5156 22.1875 9.5625 21.2344 9.5625 20.0625ZM11.8012 25.0488L11.9861 24.3125H15.6389L15.8228 25.0488L13.8125 27.0601L11.8012 25.0488ZM12.3101 28.5625L11.1382 29.7344L10.2074 26.5756L10.2988 26.5523L12.3101 28.5625ZM17.3262 26.5523L17.4176 26.5756L16.4868 29.7344L15.3149 28.5625L17.3262 26.5523ZM24.4375 38.125H3.1875V33.875C3.1875 30.7576 5.21475 28.0546 8.15469 27.126L10.1118 33.7666L13.8125 30.0649L17.5132 33.7656L19.4703 27.1249C22.4103 28.0546 24.4375 30.7576 24.4375 33.875V38.125Z" fill="white"/>
</g>
<defs>
<clipPath id="clip0">
<rect width="68" height="68" fill="white"/>
</clipPath>
</defs>
</svg>
