<svg width="66" height="60" viewBox="0 0 66 60" fill="none" xmlns="http://www.w3.org/2000/svg">
<path d="M33 49.5322C31.2943 49.5322 29.9062 50.7923 29.9062 52.3406C29.9062 53.889 31.2943 55.1491 33 55.1491C34.7057 55.1491 36.0938 53.889 36.0938 52.3406C36.0938 50.7923 34.7057 49.5322 33 49.5322ZM33 53.2768C32.4308 53.2768 31.9688 52.8565 31.9688 52.3406C31.9688 51.8248 32.4308 51.4045 33 51.4045C33.5692 51.4045 34.0312 51.8248 34.0312 52.3406C34.0312 52.8565 33.5692 53.2768 33 53.2768Z" fill="#36276E"/>
<path d="M19.5938 19.5724V17.6998C19.5938 15.6345 17.7437 13.9548 15.4688 13.9548C13.1938 13.9548 11.3438 15.6345 11.3438 17.6998V19.5724C11.3438 21.6377 13.1938 23.3174 15.4688 23.3174C17.7437 23.3174 19.5938 21.6377 19.5938 19.5724ZM17.5312 19.5724C17.5312 20.605 16.6062 21.4449 15.4688 21.4449C14.3313 21.4449 13.4062 20.605 13.4062 19.5724V17.6998C13.4062 16.6672 14.3313 15.8273 15.4688 15.8273C16.6062 15.8273 17.5312 16.6672 17.5312 17.6998V19.5724Z" fill="#36276E"/>
<path d="M60.8438 21.4447H50.5312V7.40094C50.5312 3.787 47.2921 0.847168 43.3125 0.847168H22.6875C18.7079 0.847168 15.4688 3.787 15.4688 7.40094V10.2097H5.15625C2.88131 10.2097 1.03125 11.8893 1.03125 13.9547V28.9347C1.03125 31.0001 2.88131 32.6798 5.15625 32.6798H15.4688V52.3411C15.4688 55.955 18.7079 58.8948 22.6875 58.8948H43.3125C47.2921 58.8948 50.5312 55.955 50.5312 52.3411V43.9148H60.8438C63.1187 43.9148 64.9688 42.2352 64.9688 40.1698V25.1897C64.9688 23.1253 63.1187 21.4447 60.8438 21.4447ZM22.6875 2.71967H43.3125C45.8019 2.71967 47.8851 4.33096 48.3646 6.46468H17.6354C18.1149 4.33096 20.1981 2.71967 22.6875 2.71967V2.71967ZM3.09375 28.9347V13.9547C3.09375 12.922 4.01878 12.0822 5.15625 12.0822H25.7812C26.9187 12.0822 27.8438 12.922 27.8438 13.9547V20.5085C27.8438 20.7566 27.952 20.9953 28.1459 21.1704L31.5418 24.2535H28.875C28.3047 24.2535 27.8438 24.6729 27.8438 25.1897V28.9347C27.8438 29.9674 26.9187 30.8072 25.7812 30.8072H22.6875V26.126C22.6875 24.5774 21.2994 23.3172 19.5938 23.3172H15.4688H11.3438C9.63806 23.3172 8.25 24.5774 8.25 26.126V30.8072H5.15625C4.01878 30.8072 3.09375 29.9674 3.09375 28.9347ZM17.5312 27.0622V30.8072H13.4062V27.0622H11.3438V30.8072H10.3125V26.126C10.3125 25.6101 10.7745 25.1897 11.3438 25.1897H19.5938C20.163 25.1897 20.625 25.6101 20.625 26.126V30.8072H19.5938V27.0622H17.5312ZM43.3125 57.0223H22.6875C19.8443 57.0223 17.5312 54.9223 17.5312 52.3411V47.6598H48.4688V52.3411C48.4688 54.9223 46.1557 57.0223 43.3125 57.0223ZM48.4688 45.7873H17.5312V32.6798H25.7812C28.0562 32.6798 29.9062 31.0001 29.9062 28.9347V26.126H34.0312C34.4479 26.126 34.8253 25.8975 34.9841 25.5483C35.144 25.1982 35.0553 24.7956 34.7603 24.5278L29.9062 20.1209V13.9547C29.9062 11.8893 28.0562 10.2097 25.7812 10.2097H17.5312V8.33719H48.4688V21.4447H40.2188C37.9438 21.4447 36.0938 23.1244 36.0938 25.1897V30.8072H31.9688C31.5521 30.8072 31.1747 31.0357 31.0159 31.3849C30.856 31.7351 30.9447 32.1377 31.2397 32.4054L36.0938 36.8124V40.1698C36.0938 42.2352 37.9438 43.9148 40.2188 43.9148H48.4688V45.7873ZM55.6875 42.0423H54.6562V38.2973H52.5938V42.0423H48.4688V38.2973H46.4062V42.0423H45.375V37.361C45.375 36.8451 45.837 36.4248 46.4062 36.4248H54.6562C55.2255 36.4248 55.6875 36.8451 55.6875 37.361V42.0423ZM62.9062 40.1698C62.9062 41.2025 61.9812 42.0423 60.8438 42.0423H57.75V37.361C57.75 35.8125 56.3619 34.5523 54.6562 34.5523H50.5312H46.4062C44.7006 34.5523 43.3125 35.8125 43.3125 37.361V42.0423H40.2188C39.0813 42.0423 38.1562 41.2025 38.1562 40.1698V36.4248C38.1562 36.1767 38.048 35.9379 37.8541 35.7628L34.4582 32.6798H37.125C37.6953 32.6798 38.1562 32.2603 38.1562 31.7435V25.1897C38.1562 24.157 39.0813 23.3172 40.2188 23.3172H60.8438C61.9812 23.3172 62.9062 24.157 62.9062 25.1897V40.1698Z" fill="#36276E"/>
<path d="M54.6562 30.8075V28.9349C54.6562 26.8696 52.8062 25.1899 50.5312 25.1899C48.2563 25.1899 46.4062 26.8696 46.4062 28.9349V30.8075C46.4062 32.8728 48.2563 34.5525 50.5312 34.5525C52.8062 34.5525 54.6562 32.8728 54.6562 30.8075ZM52.5938 30.8075C52.5938 31.8401 51.6687 32.68 50.5312 32.68C49.3938 32.68 48.4688 31.8401 48.4688 30.8075V28.9349C48.4688 27.9023 49.3938 27.0624 50.5312 27.0624C51.6687 27.0624 52.5938 27.9023 52.5938 28.9349V30.8075Z" fill="#36276E"/>
<path d="M31.9688 41.1062H34.0312V42.9785H31.9688V41.1062Z" fill="#36276E"/>
<path d="M27.8438 41.1062H29.9062V42.9785H27.8438V41.1062Z" fill="#36276E"/>
<path d="M23.7188 41.1062H25.7812V42.9785H23.7188V41.1062Z" fill="#36276E"/>
<path d="M40.2188 10.2097H42.2812V12.082H40.2188V10.2097Z" fill="#36276E"/>
<path d="M36.0938 10.2097H38.1562V12.082H36.0938V10.2097Z" fill="#36276E"/>
<path d="M31.9688 10.2097H34.0312V12.082H31.9688V10.2097Z" fill="#36276E"/>
</svg>
