<svg width="66" height="60" viewBox="0 0 66 60" fill="none" xmlns="http://www.w3.org/2000/svg">
<path d="M23.7188 36.5138V26.2151C23.7187 25.9668 23.6101 25.7286 23.4167 25.553C23.2233 25.3775 22.961 25.2788 22.6875 25.2788H18.5625C18.289 25.2788 18.0267 25.3775 17.8333 25.553C17.6399 25.7286 17.5313 25.9668 17.5312 26.2151V36.5138H19.5938V27.1513H21.6562V36.5138H23.7188Z" fill="#36276E"/>
<path d="M40.2188 40.2589V27.1513C40.2187 26.903 40.1101 26.6649 39.9167 26.4893C39.7233 26.3137 39.461 26.2151 39.1875 26.2151H35.0625C34.789 26.2151 34.5267 26.3137 34.3333 26.4893C34.1399 26.6649 34.0313 26.903 34.0312 27.1513V40.2589H36.0938V28.0876H38.1562V40.2589H40.2188Z" fill="#36276E"/>
<path d="M31.9688 40.259V23.4065C31.9687 23.1582 31.8601 22.92 31.6667 22.7444C31.4733 22.5689 31.211 22.4702 30.9375 22.4702H26.8125C26.539 22.4702 26.2767 22.5689 26.0833 22.7444C25.8899 22.92 25.7813 23.1582 25.7812 23.4065V38.3865H27.8438V24.3427H29.9062V40.259H31.9688Z" fill="#36276E"/>
<path d="M48.4688 32.769V23.4065C48.4687 23.1582 48.3601 22.92 48.1667 22.7444C47.9733 22.5689 47.711 22.4702 47.4375 22.4702H43.3125C43.039 22.4702 42.7767 22.5689 42.5833 22.7444C42.3899 22.92 42.2813 23.1582 42.2812 23.4065V33.7052H44.3438V24.3427H46.4062V32.769H48.4688Z" fill="#36276E"/>
<path d="M56.7188 31.8326V17.7888C56.7187 17.5405 56.6101 17.3023 56.4167 17.1268C56.2233 16.9512 55.961 16.8525 55.6875 16.8525H51.5625C51.289 16.8525 51.0267 16.9512 50.8333 17.1268C50.6399 17.3023 50.5313 17.5405 50.5312 17.7888V31.8326H52.5938V18.725H54.6562V31.8326H56.7188Z" fill="#36276E"/>
<path d="M17.8332 23.1319C18.0266 23.3075 18.289 23.4061 18.5625 23.4061C18.836 23.4061 19.0983 23.3075 19.2917 23.1319L27.8043 15.4034L36.3585 24.0324C36.4521 24.1269 36.566 24.2031 36.6931 24.2563C36.8202 24.3095 36.958 24.3387 37.0979 24.342C37.107 24.3423 37.1159 24.3424 37.125 24.3424C37.3985 24.3424 37.6608 24.2437 37.8542 24.0681L51.5625 11.6227V14.0436C51.5625 14.2919 51.6711 14.53 51.8645 14.7056C52.0579 14.8812 52.3202 14.9798 52.5937 14.9799H56.7187C56.9922 14.9798 57.2545 14.8812 57.4479 14.7056C57.6413 14.53 57.75 14.2919 57.75 14.0436V2.80857C57.75 2.56026 57.6413 2.32212 57.4479 2.14654C57.2545 1.97096 56.9922 1.87232 56.7187 1.87231H44.3437C44.0702 1.87232 43.8079 1.97096 43.6145 2.14654C43.4211 2.32212 43.3125 2.56026 43.3125 2.80857V6.55358C43.3125 6.80189 43.4211 7.04002 43.6145 7.21561C43.8079 7.39119 44.0702 7.48983 44.3437 7.48983H47.0103L37.1644 16.4288L28.6102 7.79978C28.5166 7.70531 28.4027 7.62915 28.2756 7.57592C28.1485 7.52269 28.0107 7.49352 27.8708 7.49017C27.7309 7.48683 27.5916 7.50939 27.4616 7.55648C27.3316 7.60357 27.2135 7.6742 27.1145 7.76407L14.7395 18.9991C14.5461 19.1747 14.4374 19.4128 14.4374 19.6611C14.4374 19.9094 14.5461 20.1476 14.7395 20.3231L17.8332 23.1319ZM27.8043 9.78589L36.3585 18.4149C36.4521 18.5094 36.566 18.5855 36.6931 18.6388C36.8202 18.692 36.9579 18.7212 37.0979 18.7245C37.2378 18.7279 37.3771 18.7053 37.5071 18.6582C37.6371 18.6111 37.7552 18.5405 37.8542 18.4506L50.2292 7.21559C50.3734 7.08465 50.4716 6.91782 50.5114 6.73621C50.5512 6.5546 50.5307 6.36636 50.4527 6.19529C50.3746 6.02423 50.2424 5.87801 50.0729 5.77513C49.9033 5.67226 49.7039 5.61734 49.5 5.61732H45.375V3.74482H55.6875V13.1073H53.625V9.36234C53.625 9.17716 53.5645 8.99614 53.4512 8.84217C53.3378 8.6882 53.1768 8.56819 52.9883 8.49733C52.7999 8.42647 52.5925 8.40793 52.3925 8.44406C52.1924 8.48019 52.0087 8.56937 51.8645 8.70032L37.1644 22.0463L28.6102 13.4173C28.5166 13.3228 28.4027 13.2466 28.2756 13.1934C28.1485 13.1402 28.0107 13.111 27.8708 13.1077C27.8617 13.1075 27.8528 13.1073 27.8437 13.1073C27.5702 13.1074 27.3079 13.206 27.1145 13.3816L18.5625 21.1458L16.9271 19.6611L27.8043 9.78589Z" fill="#36276E"/>
<path d="M11.3438 57.1115V55.239H14.4375C14.711 55.239 14.9733 55.1403 15.1667 54.9648C15.3601 54.7892 15.4687 54.551 15.4688 54.3027V51.8498C20.393 55.9535 26.8726 58.172 33.5553 58.0422C40.238 57.9124 46.6073 55.4445 51.3338 51.1535L62.6043 40.9215C63.2857 40.3029 63.6944 39.4794 63.7534 38.6062C63.8124 37.7329 63.5176 36.8702 62.9245 36.1807C62.3315 35.4911 61.4811 35.0223 60.5337 34.8625C59.5862 34.7027 58.6071 34.8631 57.7809 35.3133C57.4288 34.8186 56.9501 34.4087 56.3856 34.1185C55.8211 33.8283 55.1876 33.6664 54.5393 33.6468C53.8909 33.6272 53.247 33.7503 52.6624 34.0058C52.0779 34.2612 51.5702 34.6413 51.1826 35.1136L50.7454 35.6461C50.5218 35.4904 50.2824 35.3544 50.0305 35.2399C49.497 34.9977 48.9151 34.8559 48.3198 34.823C47.7244 34.7901 47.1279 34.8668 46.566 35.0485C46.0041 35.2302 45.4885 35.5131 45.05 35.8802C44.6116 36.2474 44.2594 36.6912 44.0147 37.185L41.415 42.4298C40.8705 42.2325 40.2895 42.1313 39.7031 42.1315H27.2396L25.4793 40.5332C24.1874 39.3636 22.5086 38.6111 20.7004 38.3909C18.8922 38.1708 17.0544 38.4952 15.4688 39.3145V38.3865C15.4687 38.1381 15.3601 37.9 15.1667 37.7244C14.9733 37.5488 14.711 37.4502 14.4375 37.4502H11.3438V36.5139C11.3437 36.2656 11.2351 36.0275 11.0417 35.8519C10.8483 35.6763 10.586 35.5777 10.3125 35.5777H2.0625V37.4502H9.28125V56.1752H2.0625V58.0477H10.3125C10.586 58.0477 10.8483 57.9491 11.0417 57.7735C11.2351 57.5979 11.3437 57.3598 11.3438 57.1115V57.1115ZM55.4126 35.7708C55.7649 35.963 56.0414 36.2514 56.2025 36.5948L48.0201 44.0234C46.9249 45.0192 45.6884 45.878 44.3433 46.5772L52.8362 36.2326C53.1254 35.8784 53.5496 35.6348 54.026 35.5494C54.5024 35.464 54.9968 35.5429 55.4126 35.7708V35.7708ZM45.8954 37.9534C46.0261 37.6897 46.2142 37.4527 46.4483 37.2566C46.6825 37.0605 46.9578 36.9095 47.2579 36.8125C47.558 36.7154 47.8765 36.6745 48.1944 36.692C48.5124 36.7096 48.8231 36.7853 49.108 36.9146C49.2511 36.9799 49.3865 37.0581 49.5123 37.148L43.7072 44.2188C43.5449 43.9671 43.3543 43.7313 43.1386 43.5152L45.8954 37.9534ZM24.0208 41.8572L26.0833 43.7297C26.2767 43.9053 26.539 44.004 26.8125 44.004H39.7031C40.3869 44.004 41.0426 44.2506 41.5261 44.6895C42.0096 45.1285 42.2813 45.7238 42.2813 46.3446C42.2813 46.9654 42.0096 47.5607 41.5261 47.9997C41.0426 48.4386 40.3869 48.6852 39.7031 48.6852H26.8125V50.5577H39.7031C40.3412 50.5579 40.9725 50.4382 41.5572 50.2063C42.142 49.9744 42.6676 49.6352 43.101 49.21C45.4877 48.3188 47.6556 47.0058 49.4786 45.3475L58.4791 37.1761C58.8328 36.855 59.3125 36.6746 59.8126 36.6746C60.3128 36.6747 60.7924 36.8551 61.1461 37.1761C61.4997 37.4972 61.6984 37.9327 61.6984 38.3868C61.6984 38.8409 61.4997 39.2763 61.146 39.5974L49.8753 49.8294C45.3996 53.8926 39.3293 56.1753 32.9999 56.1752C26.6704 56.1752 20.6002 53.8924 16.1246 49.8291L15.4688 49.2336V41.6024C16.6645 40.6532 18.2126 40.1515 19.8001 40.1989C21.3876 40.2462 22.8961 40.8389 24.0208 41.8572V41.8572ZM13.4063 39.3227V53.3665H11.3438V39.3227H13.4063Z" fill="#36276E"/>
</svg>
