<svg width="68" height="68" viewBox="0 0 68 68" fill="none" xmlns="http://www.w3.org/2000/svg">
<path d="M52.0625 51C53.8199 51 55.25 49.5699 55.25 47.8125C55.25 46.0551 53.8199 44.625 52.0625 44.625C50.3051 44.625 48.875 46.0551 48.875 47.8125C48.875 49.5699 50.3051 51 52.0625 51ZM52.0625 46.75C52.6479 46.75 53.125 47.226 53.125 47.8125C53.125 48.399 52.6479 48.875 52.0625 48.875C51.4771 48.875 51 48.399 51 47.8125C51 47.226 51.4771 46.75 52.0625 46.75Z" fill="white"/>
<path d="M62.8575 43.3266C62.5356 42.5552 62.7066 41.6787 63.2921 41.0922L64.838 39.5452L60.3288 35.0359L58.7807 36.5829C58.1953 37.1694 57.3176 37.3394 56.5059 36.9994C55.743 36.6849 55.25 35.9476 55.25 35.1209V32.9375H53.0708C52.9741 31.2237 52.6564 29.5672 52.1294 27.9979L64.4247 15.7027C66.045 14.0824 66.9375 11.9287 66.9375 9.63794C66.9375 4.90981 63.0902 1.0625 58.3621 1.0625C56.0713 1.0625 53.9176 1.955 52.2984 3.57425L40.0159 15.8578C38.4274 15.3244 36.7434 15.0142 35.0041 14.9218C33.5378 12.3601 30.7827 10.625 27.625 10.625C26.8164 10.625 26.0366 10.7461 25.2939 10.9576C23.46 7.50975 19.8974 5.3125 15.9375 5.3125C10.0789 5.3125 5.3125 10.0789 5.3125 15.9375C5.3125 16.7514 5.41237 17.5525 5.59406 18.3366C2.975 19.1292 1.0625 21.5634 1.0625 24.4375C1.0625 27.9533 3.92169 30.8125 7.4375 30.8125H15.1449C14.9685 31.8633 14.875 32.9301 14.875 34C14.875 36.3386 15.3074 38.2415 16.0055 39.8671L6.52694 49.3467L1.25269 63.0594C1.12625 63.3866 1.0625 63.7309 1.0625 64.0826C1.0625 65.6572 2.34388 66.9375 3.91744 66.9375C4.26912 66.9375 4.61337 66.8727 4.94169 66.7473L18.6543 61.4731L25.585 54.5413C25.5329 54.7697 25.5 55.0056 25.5 55.25C25.5 56.0692 25.8198 56.8097 26.3288 57.375C25.8188 57.9403 25.5 58.6808 25.5 59.5C25.5 60.9769 26.5147 62.2115 27.88 62.5706C28.7852 65.1631 31.2099 66.9375 34 66.9375C36.7901 66.9375 39.2147 65.1631 40.12 62.5706C41.4853 62.2115 42.5 60.9769 42.5 59.5C42.5 59.4203 42.4819 59.3459 42.4766 59.2684L43.7962 60.588L45.3443 59.041C45.9297 58.4545 46.8042 58.2834 47.6181 58.6224C48.3809 58.9401 48.875 59.6774 48.875 60.5041V62.6875H55.25V60.5041C55.25 59.6774 55.7441 58.939 56.5484 58.6064C57.3198 58.2856 58.1963 58.4545 58.7817 59.041L60.3288 60.588L64.838 56.0788L63.2921 54.5317C62.7066 53.9453 62.5356 53.0687 62.8745 52.2569C63.1901 51.4941 63.9274 51 64.7541 51H66.9375V44.625H64.7541C63.9274 44.625 63.1901 44.1309 62.8575 43.3266ZM46.937 46.4589C48.0962 45.3273 49.2575 44.1713 50.2594 42.8347C50.8374 42.6243 51.4388 42.5 52.0625 42.5C54.9918 42.5 57.375 44.8832 57.375 47.8125C57.375 50.7418 54.9918 53.125 52.0625 53.125C49.1332 53.125 46.75 50.7418 46.75 47.8125C46.75 47.3524 46.8212 46.8998 46.937 46.4589ZM48.2131 21.2904L53.125 16.3774L56.9351 20.1875L51.2603 25.8623C50.4645 24.1921 49.436 22.6557 48.2131 21.2904ZM49.3149 9.5625L51 7.87738L60.1226 17L58.4375 18.6851L49.3149 9.5625ZM58.3621 3.1875C61.9183 3.1875 64.8125 6.08175 64.8125 9.63794C64.8125 11.3603 64.1421 12.9806 62.9234 14.1993L61.625 15.4976L52.5024 6.375L53.8008 5.07662C55.0194 3.859 56.6387 3.1875 58.3621 3.1875ZM47.8125 11.0649L51.6226 14.875L46.7128 19.7848C45.3486 18.5608 43.8133 17.5312 42.143 16.7344L47.8125 11.0649ZM51 34C51 39.5282 48.2162 42.2439 45.2689 45.118C43.2395 47.0974 41.1549 49.1438 39.9415 52.1263C39.7386 52.0848 39.5282 52.0625 39.3125 52.0625H35.0625V46.75C35.0625 44.9926 33.6324 43.5625 31.875 43.5625H29.75C29.1646 43.5625 28.6875 43.0865 28.6875 42.5C28.6875 41.9135 29.1646 41.4375 29.75 41.4375H40.375C42.1324 41.4375 43.5625 40.0074 43.5625 38.25C43.5625 36.4926 42.1324 35.0625 40.375 35.0625H31.875C31.2896 35.0625 30.8125 34.5865 30.8125 34V30.8125H36.125C39.0543 30.8125 41.4375 28.4293 41.4375 25.5C41.4375 22.5707 39.0543 20.1875 36.125 20.1875C36.0952 20.1875 36.0676 20.196 36.0379 20.196C36.0836 19.8411 36.125 19.4862 36.125 19.125C36.125 18.4301 36.0315 17.7576 35.8742 17.1105C44.3445 18.054 51 25.3236 51 34ZM27.625 55.25C27.625 54.6635 28.1021 54.1875 28.6875 54.1875H39.3125C39.8979 54.1875 40.375 54.6635 40.375 55.25C40.375 55.8365 39.8979 56.3125 39.3125 56.3125H28.6875C28.1021 56.3125 27.625 55.8365 27.625 55.25ZM14.2524 55.25L22.0628 47.4396C23.3697 48.7358 24.5831 50.0469 25.4777 51.6439L18.0625 59.0601L14.2524 55.25ZM3.1875 24.4375C3.1875 22.0936 5.09363 20.1875 7.4375 20.1875C9.78137 20.1875 11.6875 22.0936 11.6875 24.4375H13.8125C13.8125 21.0141 11.0978 18.2198 7.7095 18.0763C7.52887 17.3814 7.4375 16.6643 7.4375 15.9375C7.4375 11.2508 11.2508 7.4375 15.9375 7.4375C19.0453 7.4375 21.8503 9.12687 23.3421 11.7948C21.0768 13.124 19.4767 15.4647 19.1781 18.1964C17.323 18.6532 15.9375 20.3182 15.9375 22.3125H18.0625C18.0625 21.1406 19.0156 20.1875 20.1875 20.1875C21.3594 20.1875 22.3125 21.1406 22.3125 22.3125H24.4375C24.4375 20.3628 23.1115 18.734 21.3191 18.2346C21.7547 15.1406 24.412 12.75 27.625 12.75C31.1408 12.75 34 15.6092 34 19.125C34 19.6839 33.9086 20.2311 33.7663 20.7644C32.0238 21.6367 30.8125 23.4217 30.8125 25.5H32.9375C32.9375 23.7426 34.3676 22.3125 36.125 22.3125C37.8824 22.3125 39.3125 23.7426 39.3125 25.5C39.3125 27.2574 37.8824 28.6875 36.125 28.6875H7.4375C5.09363 28.6875 3.1875 26.7814 3.1875 24.4375ZM28.6875 30.8125V34C28.6875 35.7574 30.1176 37.1875 31.875 37.1875H40.375C40.9604 37.1875 41.4375 37.6635 41.4375 38.25C41.4375 38.8365 40.9604 39.3125 40.375 39.3125H29.75C27.9926 39.3125 26.5625 40.7426 26.5625 42.5C26.5625 44.2574 27.9926 45.6875 29.75 45.6875H31.875C32.4604 45.6875 32.9375 46.1635 32.9375 46.75V52.0625H28.6875C28.4718 52.0625 28.2614 52.0848 28.0585 52.1263C26.8451 49.1438 24.7605 47.0974 22.7311 45.118C19.7837 42.2439 17 39.5282 17 34C17 32.9258 17.1286 31.8612 17.3273 30.8125H28.6875ZM20.5456 45.9521L12.75 53.7476L8.93987 49.9375L17.0468 41.8306C18.0444 43.3967 19.2812 44.7036 20.5456 45.9521ZM7.84231 51.8447L16.1553 60.1577L9.11731 62.8649L5.13506 58.8827L7.84231 51.8447ZM4.17987 64.7636C3.71981 64.9421 3.1875 64.5756 3.1875 64.0826C3.1875 63.9922 3.2045 63.9041 3.23531 63.8212L4.29994 61.0523L6.94663 63.699L4.17987 64.7636ZM34 64.8125C32.4307 64.8125 31.0314 63.9774 30.2558 62.6875H37.7442C36.9686 63.9774 35.5693 64.8125 34 64.8125ZM39.3125 60.5625H28.6875C28.1021 60.5625 27.625 60.0865 27.625 59.5C27.625 58.9135 28.1021 58.4375 28.6875 58.4375H39.3125C39.8979 58.4375 40.375 58.9135 40.375 59.5C40.375 60.0865 39.8979 60.5625 39.3125 60.5625ZM64.8125 48.875H64.7541C63.0636 48.875 61.5549 49.8844 60.8961 51.4803C60.2416 53.0496 60.5923 54.8367 61.7886 56.0341L61.8332 56.0788L60.3288 57.5832L60.2841 57.5386C59.0856 56.3401 57.2964 55.9884 55.6952 56.6599C54.1344 57.3059 53.125 58.8136 53.125 60.5041V60.5625H51V60.5041C51 58.8136 49.9906 57.3049 48.3947 56.6451C46.8233 55.9895 45.0362 56.3412 43.8398 57.5386L43.7952 57.5832L42.3555 56.1436C42.4405 55.8577 42.5 55.5624 42.5 55.25C42.5 54.4956 42.2259 53.8114 41.786 53.2642C42.4469 51.4803 43.4828 50.0533 44.6888 48.7358C45.1456 52.4014 48.2747 55.25 52.0625 55.25C56.1637 55.25 59.5 51.9127 59.5 47.8125C59.5 43.7123 56.1637 40.375 52.0625 40.375C51.9584 40.375 51.8574 40.3856 51.7544 40.3899C52.4737 38.8971 52.9678 37.1662 53.0921 35.0625H53.125V35.1209C53.125 36.8114 54.1344 38.3212 55.7292 38.9789C57.2974 39.6355 59.0867 39.2849 60.2841 38.0864L60.3288 38.0418L61.8332 39.5462L61.7886 39.5909C60.5923 40.7883 60.2416 42.5765 60.9099 44.1788C61.5549 45.7406 63.0636 46.75 64.7541 46.75H64.8125V48.875Z" fill="white"/>
</svg>
