<svg width="100" height="100" viewBox="0 0 100 100" fill="none" xmlns="http://www.w3.org/2000/svg">
<g clip-path="url(#clip0)">
<path d="M9.57031 73.333V98.333C9.57031 99.2539 10.3165 100 11.2373 100H81.237C82.1571 100 82.9033 99.2539 82.9033 98.333V46.6668C82.9033 45.7459 82.1571 44.9998 81.237 44.9998H57.9033C56.9832 44.9998 56.237 45.7459 56.237 46.6668V58.3336H34.5703C33.6494 58.3336 32.9033 59.0798 32.9033 59.9999V71.6668H11.2373C10.3165 71.6668 9.57031 72.4129 9.57031 73.333H9.57031ZM59.5703 48.333H79.57V96.6668H59.5703V48.333ZM36.2373 61.6669H56.237V96.6668H36.2373V61.6669ZM12.9036 75.0001H32.9033V96.6668H12.9036V75.0001Z" fill="#FCDD1E"/>
<path d="M72.9034 10.633C72.4418 9.95477 71.7918 9.42606 71.0335 9.11172V8.33353C71.0335 7.41266 70.2873 6.6665 69.3672 6.6665C68.4463 6.6665 67.7002 7.41266 67.7002 8.33353V9.11325C65.5487 10.0051 64.5279 12.4725 65.4198 14.6232C65.6357 15.1428 65.9523 15.6135 66.3521 16.0079L70.0188 19.6746C70.327 19.989 70.3705 20.4772 70.1233 20.8419C69.8402 21.2631 69.268 21.3752 68.8469 21.0914C68.7477 21.025 68.663 20.9403 68.5966 20.8419L67.4133 19.065C66.9029 18.299 65.8676 18.0923 65.1016 18.6035C64.3364 19.1139 64.1296 20.1492 64.64 20.9152L65.8234 22.6898C66.2857 23.368 66.9357 23.8967 67.6933 24.2118V24.9999C67.6933 25.9208 68.4395 26.667 69.3603 26.667C70.2804 26.667 71.0266 25.9208 71.0266 24.9999V24.2202C73.1781 23.3283 74.1989 20.861 73.307 18.7103C73.0919 18.1907 72.7753 17.72 72.3755 17.3248L68.7088 13.6581C68.4006 13.3438 68.3563 12.8562 68.6035 12.4915C68.8873 12.0704 69.4588 11.9583 69.8807 12.2421C69.9791 12.3084 70.0638 12.3931 70.1301 12.4915L71.3135 14.2684C71.8246 15.0344 72.8592 15.2412 73.6252 14.73C74.3912 14.2188 74.5979 13.1843 74.0867 12.4183L72.9034 10.633Z" fill="#FCDD1E"/>
<path d="M69.5702 3.74718e-06C60.3729 -0.00609977 52.9121 7.44477 52.9053 16.642C52.9015 22.5975 56.0783 28.1021 61.2373 31.0783V34.9999H64.5706V32.5653C67.8246 33.5892 71.3158 33.5892 74.5705 32.5653V34.9999H77.9038V31.0783C85.8704 26.4824 88.6032 16.2979 84.0065 8.3313C81.0303 3.17307 75.5257 -0.00381094 69.5702 3.74718e-06ZM69.5702 30.0003C62.2063 30.0003 56.237 24.0303 56.237 16.6664C56.237 9.30253 62.2063 3.33329 69.5702 3.33329C76.9341 3.33329 82.9033 9.30253 82.9033 16.6664C82.8957 24.0273 76.931 29.9919 69.5702 30.0003Z" fill="#FCDD1E"/>
<path d="M48.9235 9.87175C49.128 9.95796 49.3484 10.0014 49.5705 9.99992C50.2434 10.0007 50.8514 9.59633 51.1101 8.97529C51.799 7.32277 52.7077 5.77019 53.8101 4.36027C54.3915 3.64616 54.2839 2.59636 53.5705 2.015C52.8564 1.43364 51.8066 1.54121 51.226 2.25532C51.2115 2.27211 51.1986 2.28889 51.1856 2.30644C49.8978 3.9521 48.8373 5.76332 48.0316 7.69203C47.6769 8.53966 48.0759 9.51546 48.9235 9.87175Z" fill="#FCDD1E"/>
<path d="M89.5706 25.1884C88.7543 24.7627 87.7472 25.08 87.3222 25.8964C86.6623 27.1598 85.8704 28.3492 84.9587 29.4448C84.3697 30.1536 84.4666 31.2049 85.1753 31.7931C85.8833 32.3821 86.9347 32.2852 87.5237 31.5765C88.5857 30.2985 89.5088 28.9108 90.2771 27.4368C90.7028 26.6204 90.3862 25.6141 89.5706 25.1884Z" fill="#FCDD1E"/>
<path d="M67.9039 36.667H71.2372V40.0003H67.9039V36.667Z" fill="#FCDD1E"/>
<path d="M44.5702 65.0002H47.9035V68.3335H44.5702V65.0002Z" fill="#FCDD1E"/>
<path d="M21.2372 78.3333H24.5705V81.6665H21.2372V78.3333Z" fill="#FCDD1E"/>
<path d="M67.9039 51.667H71.2372V55.0003H67.9039V51.667Z" fill="#FCDD1E"/>
<path d="M59.5703 15.0002H62.9036V18.3335H59.5703V15.0002Z" fill="#FCDD1E"/>
<path d="M76.2367 15.0002H79.57V18.3335H76.2367V15.0002Z" fill="#FCDD1E"/>
<path d="M74.5704 38.333H77.9037V41.6663H74.5704V38.333Z" fill="#FCDD1E"/>
<path d="M61.2373 38.333H64.5706V41.6663H61.2373V38.333Z" fill="#FCDD1E"/>
<path d="M30.1903 45.1179C29.544 44.8593 28.8048 45.0294 28.3371 45.5452L11.6699 63.8786C11.0512 64.5592 11.1007 65.6135 11.7821 66.233C12.4634 66.8526 13.5177 66.803 14.1372 66.1217L30.0255 48.645L37.2833 51.548C37.9837 51.8287 38.7848 51.6037 39.2372 51.0002L47.3182 40.2229L49.3683 42.2729C49.6811 42.5857 50.1045 42.7612 50.547 42.7612C50.6973 42.762 50.8468 42.7421 50.9918 42.7017C51.5686 42.5392 52.0141 42.0799 52.1583 41.4985L54.515 32.0701C54.7378 31.1767 54.1946 30.2719 53.3012 30.0491C53.0357 29.9835 52.7588 29.9835 52.4933 30.0499L43.0702 32.4066C42.1776 32.6301 41.6343 33.5342 41.8571 34.4276C41.9304 34.7206 42.0822 34.9884 42.295 35.2012L44.9371 37.8433L37.3367 47.9782L30.1903 45.1179ZM50.6118 33.9516L49.6437 37.8334L46.7369 34.9266L50.6118 33.9516Z" fill="#FCDD1E"/>
</g>
<defs>
<clipPath id="clip0">
<rect width="100" height="100" fill="white"/>
</clipPath>
</defs>
</svg>
