<svg width="100" height="100" viewBox="0 0 100 100" fill="none" xmlns="http://www.w3.org/2000/svg">
<path d="M88.7565 13.4619L90.387 18.0465C90.4567 18.2428 90.595 18.3983 90.7694 18.477L94.8425 20.3121C95.4179 20.5715 95.4179 21.4883 94.8425 21.7475L90.7694 23.5826C90.595 23.6612 90.4569 23.8168 90.387 24.0131L88.7565 28.5977C88.5263 29.2453 87.7116 29.2453 87.4813 28.5977L85.8509 24.0131C85.7812 23.8168 85.6429 23.6614 85.4685 23.5826L81.3954 21.7475C80.82 21.4883 80.82 20.5713 81.3954 20.3121L85.4685 18.477C85.6429 18.3985 85.781 18.2428 85.8509 18.0465L87.4813 13.4619C87.7116 12.8143 88.5261 12.8143 88.7565 13.4619Z" fill="#FCDD1E"/>
<path d="M27.8158 0.360352L29.0251 3.76113C29.0769 3.90664 29.1794 4.02207 29.3087 4.08047L32.3302 5.4418C32.7572 5.63418 32.7572 6.31426 32.3302 6.50645L29.3087 7.86777C29.1794 7.92598 29.0769 8.04141 29.0251 8.18711L27.8158 11.5879C27.6449 12.0684 27.0406 12.0684 26.8697 11.5879L25.6603 8.18711C25.6085 8.0416 25.506 7.92617 25.3767 7.86777L22.3552 6.50645C21.9285 6.31406 21.9285 5.63398 22.3552 5.4418L25.3767 4.08047C25.506 4.02227 25.6085 3.90684 25.6603 3.76113L26.8697 0.360352C27.0406 -0.120117 27.6449 -0.120117 27.8158 0.360352Z" fill="#FCDD1E"/>
<path d="M77.1989 7.46125C77.1989 8.7843 76.1265 9.85676 74.8034 9.85676C73.4804 9.85676 72.4077 8.78411 72.4077 7.46125C72.4077 6.13821 73.4802 5.06555 74.8034 5.06555C76.1265 5.06555 77.1989 6.13801 77.1989 7.46125Z" fill="#FCDD1E"/>
<path d="M11.8034 20.8056C11.8034 22.7599 10.219 24.3443 8.26475 24.3443C6.31045 24.3443 4.72607 22.7599 4.72607 20.8056C4.72607 18.8513 6.31045 17.267 8.26475 17.267C10.219 17.2672 11.8034 18.8513 11.8034 20.8056Z" fill="#FCDD1E"/>
<path d="M48.3428 100C26.0346 100 7.88574 81.851 7.88574 59.543C7.88574 37.235 26.0346 19.0859 48.3428 19.0859C70.651 19.0859 88.7998 37.235 88.7998 59.543C88.7996 81.851 70.6508 100 48.3428 100ZM48.3428 23.0141C28.2006 23.0141 11.8141 39.4008 11.8141 59.5428C11.8141 79.6848 28.2008 96.0717 48.3428 96.0717C68.4848 96.0717 84.8715 79.685 84.8715 59.543C84.8715 39.401 68.4848 23.0141 48.3428 23.0141Z" fill="#FCDD1E"/>
<path d="M39.2431 50.4862C38.1585 50.4862 37.279 49.6069 37.279 48.5221C37.279 45.5077 34.8267 43.0553 31.8124 43.0553C28.798 43.0553 26.3456 45.5077 26.3456 48.5221C26.3456 49.6069 25.4661 50.4862 24.3815 50.4862C23.297 50.4862 22.4175 49.6069 22.4175 48.5221C22.4175 43.3417 26.6321 39.1272 31.8126 39.1272C36.9929 39.1272 41.2075 43.3418 41.2075 48.5221C41.2071 49.6069 40.3276 50.4862 39.2431 50.4862Z" fill="#FCDD1E"/>
<path d="M72.3041 50.4862C71.2195 50.4862 70.34 49.6069 70.34 48.5221C70.34 45.5077 67.8877 43.0553 64.8732 43.0553C61.859 43.0553 59.4066 45.5077 59.4066 48.5221C59.4066 49.6069 58.5271 50.4862 57.4426 50.4862C56.358 50.4862 55.4785 49.6069 55.4785 48.5221C55.4785 43.3417 59.6932 39.1272 64.8734 39.1272C70.0539 39.1272 74.2686 43.3418 74.2686 48.5221C74.2682 49.6069 73.3887 50.4862 72.3041 50.4862Z" fill="#FCDD1E"/>
<path d="M74.4822 58.3076H22.2033C21.1187 58.3076 20.2393 59.1869 20.2393 60.2717C20.2393 75.768 32.8465 88.3752 48.3428 88.3752C63.8391 88.3752 76.4463 75.768 76.4463 60.2717C76.4463 59.1871 75.5668 58.3076 74.4822 58.3076ZM33.4223 79.2787C36.1029 74.982 41.8852 72.1801 48.3428 72.1801C54.8002 72.1801 60.5824 74.982 63.2633 79.2787C59.1512 82.5139 53.9688 84.4471 48.3428 84.4471C42.7168 84.4471 37.5344 82.5139 33.4223 79.2787ZM66.1758 76.5752C62.6361 71.5105 55.8283 68.252 48.3426 68.252C40.8566 68.252 34.0482 71.5102 30.509 76.5748C26.9875 72.726 24.6908 67.7387 24.2461 62.2359H72.4389C71.9943 67.7389 69.6977 72.7264 66.1758 76.5752Z" fill="#FCDD1E"/>
</svg>
