<svg width="86" height="86" viewBox="0 0 86 86" fill="none" xmlns="http://www.w3.org/2000/svg">
<g clip-path="url(#clip0)">
<path d="M41.5552 0H44.4218V5.73325H41.5552V0Z" fill="white"/>
<path d="M13.5969 12.7676L15.6237 10.7408L19.6779 14.7951L17.6505 16.8218L13.5969 12.7676Z" fill="white"/>
<path d="M2.85547 38.6997H8.58871V41.5663H2.85547V38.6997Z" fill="white"/>
<path d="M13.5969 67.4986L17.6505 63.4443L19.6779 65.4718L15.6237 69.5253L13.5969 67.4986Z" fill="white"/>
<path d="M66.2991 65.4711L68.3259 63.4443L72.3801 67.4986L70.3533 69.5253L66.2991 65.4711Z" fill="white"/>
<path d="M77.3889 38.6997H83.1222V41.5663H77.3889V38.6997Z" fill="white"/>
<path d="M66.2991 14.7944L70.3533 10.7408L72.3801 12.7676L68.3259 16.8218L66.2991 14.7944Z" fill="white"/>
<path d="M41.3117 53.0336H41.5551V54.4665C41.5551 55.2585 42.1968 55.9002 42.9888 55.9002C43.7801 55.9002 44.4218 55.2585 44.4218 54.4665V53.0336H44.6658C48.4871 53.0283 51.5841 49.932 51.5887 46.1101V44.6771C51.5821 42.2475 50.3079 39.9969 48.2273 38.7418L39.2246 33.3392C37.3021 32.1884 36.6762 29.6964 37.8277 27.7733C38.5606 26.5483 39.884 25.799 41.3117 25.8003H44.6658C46.9046 25.8029 48.7188 27.6171 48.722 29.8565V31.5336C48.722 32.3248 49.3637 32.9665 50.1557 32.9665C50.947 32.9665 51.5887 32.3248 51.5887 31.5336V29.8565C51.5841 26.0345 48.4871 22.9383 44.6658 22.933H44.4224V21.5C44.4224 20.7081 43.7801 20.0664 42.9888 20.0664C42.1975 20.0664 41.5551 20.7081 41.5551 21.5V22.933H41.3117C37.4878 22.9343 34.3883 26.0359 34.3896 29.8598C34.3902 32.2907 35.6657 34.5432 37.7503 35.7944L46.753 41.197C47.9714 41.9325 48.7181 43.2507 48.722 44.6745V46.1075C48.7207 48.3475 46.9059 50.1637 44.6658 50.1669H41.3117C39.073 50.1637 37.2588 48.3495 37.2555 46.1101V44.433C37.2555 43.6417 36.6138 43 35.8219 43C35.0306 43 34.3889 43.6417 34.3889 44.433V46.1101C34.3935 49.932 37.4904 53.0283 41.3117 53.0336Z" fill="white"/>
<path d="M26.633 63.6556C29.6361 65.6752 31.4621 69.0346 31.5224 72.6531V80.2668C31.5224 83.4333 34.0892 86.0001 37.2557 86.0001H48.7222C51.8886 86.0001 54.4554 83.4333 54.4554 80.2668V72.9024C54.521 69.1487 56.4021 65.6601 59.5024 63.5428C72.4432 54.4213 75.5394 36.5365 66.4179 23.5957C57.2965 10.6556 39.4117 7.55931 26.4716 16.6801C13.5308 25.8016 10.4345 43.6864 19.556 56.6272C21.4856 59.3652 23.8812 61.7443 26.633 63.6556ZM48.7222 83.1334H37.2557C35.6724 83.1334 34.3891 81.8501 34.3891 80.2668H51.5888C51.5888 81.8501 50.3054 83.1334 48.7222 83.1334ZM51.5888 77.4002H34.3891V74.5336H51.5888V77.4002ZM17.3179 37.5234C18.7496 23.3464 31.4024 13.0144 45.5793 14.446C59.7563 15.877 70.0883 28.5305 68.6567 42.7074C67.9054 50.1473 63.9634 56.8955 57.8509 61.2037C54.3557 63.6189 52.0888 67.4408 51.6459 71.6669H44.4219V64.5001C44.4219 62.9168 45.706 61.6334 47.2885 61.6334C48.0805 61.6334 48.7222 60.9917 48.7222 60.1998C48.7222 59.4085 48.0805 58.7668 47.2885 58.7668C45.6357 58.7721 44.0669 59.4945 42.9889 60.7477C41.9109 59.4945 40.3415 58.7721 38.6887 58.7668C37.8974 58.7668 37.2557 59.4085 37.2557 60.1998C37.2557 60.9917 37.8974 61.6334 38.6887 61.6334C40.2719 61.6334 41.5553 62.9168 41.5553 64.5001V71.6669H34.3517C33.9836 67.4743 31.7508 63.6687 28.27 61.3021C20.5874 55.9402 16.3993 46.8469 17.3179 37.5234Z" fill="white"/>
</g>
<defs>
<clipPath id="clip0">
<rect width="86" height="86" fill="white"/>
</clipPath>
</defs>
</svg>
