<svg width="74" height="74" viewBox="0 0 74 74" fill="none" xmlns="http://www.w3.org/2000/svg">
<g clip-path="url(#clip0)">
<path d="M35.7568 0H38.2235V4.93326H35.7568V0Z" fill="#36276E"/>
<path d="M11.6997 10.986L13.4437 9.24207L16.9322 12.7306L15.1877 14.4745L11.6997 10.986Z" fill="#36276E"/>
<path d="M2.45703 33.2998H7.39029V35.7664H2.45703V33.2998Z" fill="#36276E"/>
<path d="M11.6997 58.0801L15.1877 54.5916L16.9322 56.3361L13.4437 59.824L11.6997 58.0801Z" fill="#36276E"/>
<path d="M57.0481 56.3355L58.7921 54.5916L62.2806 58.0801L60.5366 59.824L57.0481 56.3355Z" fill="#36276E"/>
<path d="M66.5905 33.2998H71.5238V35.7664H66.5905V33.2998Z" fill="#36276E"/>
<path d="M57.0481 12.73L60.5366 9.24207L62.2806 10.986L58.7921 14.4745L57.0481 12.73Z" fill="#36276E"/>
<path d="M35.5473 45.6334H35.7568V46.8665C35.7568 47.5479 36.309 48.1001 36.9904 48.1001C37.6713 48.1001 38.2234 47.5479 38.2234 46.8665V45.6334H38.4335C41.7215 45.6289 44.3863 42.9647 44.3903 39.676V38.443C44.3846 36.3524 43.2882 34.4159 41.498 33.3359L33.7514 28.6871C32.0972 27.6969 31.5586 25.5526 32.5495 23.8979C33.1801 22.8438 34.3188 22.1991 35.5473 22.2002H38.4335C40.3598 22.2024 41.9208 23.7635 41.9237 25.6904V27.1334C41.9237 27.8143 42.4758 28.3665 43.1573 28.3665C43.8381 28.3665 44.3903 27.8143 44.3903 27.1334V25.6904C44.3863 22.4017 41.7215 19.7375 38.4335 19.733H38.224V18.5C38.224 17.8185 37.6713 17.2664 36.9904 17.2664C36.3095 17.2664 35.7568 17.8185 35.7568 18.5V19.733H35.5473C32.257 19.7341 29.59 22.4029 29.5911 25.6932C29.5916 27.785 30.6892 29.7231 32.4828 30.7998L40.2294 35.4485C41.2778 36.0814 41.9203 37.2156 41.9237 38.4407V39.6738C41.9225 41.6012 40.3609 43.164 38.4335 43.1668H35.5473C33.621 43.164 32.06 41.6029 32.0571 39.676V38.233C32.0571 37.5521 31.505 37 30.8235 37C30.1427 37 29.5905 37.5521 29.5905 38.233V39.676C29.5945 42.9647 32.2593 45.6289 35.5473 45.6334Z" fill="#36276E"/>
<path d="M22.9167 54.7734C25.5008 56.5112 27.072 59.4018 27.1239 62.5154V69.0667C27.1239 71.7914 29.3326 74 32.0572 74H41.9237C44.6484 74 46.857 71.7914 46.857 69.0667V62.73C46.9134 59.5 48.5321 56.4982 51.1997 54.6763C62.3348 46.8276 64.999 31.4384 57.1503 20.3033C49.3016 9.1687 33.9124 6.50447 22.7778 14.3526C11.6427 22.2014 8.97849 37.5905 16.8272 48.7257C18.4876 51.0816 20.5489 53.1288 22.9167 54.7734ZM41.9237 71.5334H32.0572C30.6949 71.5334 29.5906 70.4291 29.5906 69.0667H44.3903C44.3903 70.4291 43.286 71.5334 41.9237 71.5334ZM44.3903 66.6001H29.5906V64.1335H44.3903V66.6001ZM14.9014 32.2875C16.1334 20.0887 27.0206 11.1983 39.2194 12.4303C51.4182 13.6616 60.3085 24.5494 59.0766 36.7482C58.4302 43.1499 55.0382 48.9566 49.7786 52.6636C46.7712 54.7418 44.8205 58.0304 44.4395 61.6669H38.2235V55.5C38.2235 54.1377 39.3284 53.0334 40.6901 53.0334C41.3716 53.0334 41.9237 52.4812 41.9237 51.7998C41.9237 51.1189 41.3716 50.5667 40.6901 50.5667C39.268 50.5713 37.9181 51.1929 36.9905 52.2712C36.0629 51.1929 34.7124 50.5713 33.2902 50.5667C32.6094 50.5667 32.0572 51.1189 32.0572 51.7998C32.0572 52.4812 32.6094 53.0334 33.2902 53.0334C34.6525 53.0334 35.7569 54.1377 35.7569 55.5V61.6669H29.5584C29.2417 58.0592 27.3204 54.7847 24.3253 52.7483C17.7147 48.1346 14.111 40.3101 14.9014 32.2875Z" fill="#36276E"/>
</g>
<defs>
<clipPath id="clip0">
<rect width="74" height="74" fill="white"/>
</clipPath>
</defs>
</svg>
