<svg width="46" height="46" viewBox="0 0 46 46" fill="none" xmlns="http://www.w3.org/2000/svg">
<g clip-path="url(#clip0)">
<path d="M3.83333 27.6002H4.6C4.6 28.0236 4.94328 28.3668 5.36667 28.3668H6.9V33.7335C6.9 35.0037 7.92983 36.0335 9.2 36.0335C10.4702 36.0335 11.5 35.0037 11.5 33.7335V28.3668H13.0333C13.3482 28.3653 13.6297 28.1718 13.7438 27.8783L15.3071 28.3998C16.6091 28.8329 17.8325 29.4742 18.9297 30.2981L19.9333 31.0502V31.4335C19.9333 32.7037 20.9632 33.7335 22.2333 33.7335C23.5035 33.7335 24.5333 32.7037 24.5333 31.4335V14.5668C24.5333 13.2967 23.5035 12.2668 22.2333 12.2668C20.9632 12.2668 19.9333 13.2967 19.9333 14.5668V14.9992C18.2226 16.6366 16.0865 17.7619 13.7686 18.2467C13.7008 17.8933 13.3931 17.6365 13.0333 17.6335H5.36667C4.94328 17.6335 4.6 17.9768 4.6 18.4002H3.83333C1.71714 18.4028 0.00262045 20.1173 0 22.2335V23.7668C0.00262045 25.883 1.71714 27.5976 3.83333 27.6002ZM9.96667 33.7335C9.96667 34.1569 9.62339 34.5002 9.2 34.5002C8.77661 34.5002 8.43333 34.1569 8.43333 33.7335V28.3668H9.96667V33.7335ZM21.4667 14.5668C21.4667 14.1435 21.8099 13.8002 22.2333 13.8002C22.6567 13.8002 23 14.1435 23 14.5668V31.4335C23 31.8569 22.6567 32.2002 22.2333 32.2002C21.8099 32.2002 21.4667 31.8569 21.4667 31.4335V14.5668ZM19.9333 29.1335L19.8506 29.0714C18.6216 28.1486 17.2515 27.4306 15.7934 26.9454L13.8 26.2806V19.8032C16.0382 19.3813 18.1421 18.4268 19.9333 17.0203V29.1335ZM6.13333 19.1668H12.2667V26.8335H6.13333V19.1668ZM1.53333 22.2335C1.53333 20.9633 2.56317 19.9335 3.83333 19.9335H4.6V26.0668H3.83333C2.56317 26.0668 1.53333 25.037 1.53333 23.7668V22.2335Z" fill="#36276E"/>
<path d="M39.8667 0C36.4792 0 33.7333 2.74585 33.7333 6.13333C33.7333 9.52082 36.4792 12.2667 39.8667 12.2667C43.2542 12.2667 46 9.52082 46 6.13333C45.9963 2.74772 43.2523 0.00374349 39.8667 0ZM39.8667 10.7333C37.3263 10.7333 35.2667 8.67367 35.2667 6.13333C35.2667 3.593 37.3263 1.53333 39.8667 1.53333C42.407 1.53333 44.4667 3.593 44.4667 6.13333C44.4641 8.67292 42.4063 10.7307 39.8667 10.7333Z" fill="#36276E"/>
<path d="M39.1 16.1001C35.2891 16.1001 32.2 19.1892 32.2 23.0001C32.2 26.811 35.2891 29.9001 39.1 29.9001C42.9109 29.9001 46 26.811 46 23.0001C45.9955 19.1911 42.909 16.1046 39.1 16.1001ZM39.1 28.3668C36.1359 28.3668 33.7333 25.9642 33.7333 23.0001C33.7333 20.036 36.1359 17.6334 39.1 17.6334C42.0641 17.6334 44.4667 20.036 44.4667 23.0001C44.4633 25.9627 42.0626 28.3634 39.1 28.3668Z" fill="#36276E"/>
<path d="M41.0167 3.06665C39.958 3.06665 39.1 3.92466 39.1 4.98332V6.13332H37.5667V7.66665H39.1V9.19998H40.6333V7.66665H42.1667V6.13332H40.6333V4.98332C40.6333 4.77144 40.8048 4.59998 41.0167 4.59998C41.2286 4.59998 41.4 4.77144 41.4 4.98332V5.36665H42.9333V4.98332C42.9333 3.92466 42.0753 3.06665 41.0167 3.06665Z" fill="#36276E"/>
<path d="M43.7 35.2666H36.8C35.5298 35.2666 34.5 36.2964 34.5 37.5666V43.6999C34.5 44.9701 35.5298 45.9999 36.8 45.9999H43.7C44.9702 45.9999 46 44.9701 46 43.6999V37.5666C46 36.2964 44.9702 35.2666 43.7 35.2666ZM43.7 36.7999C44.1234 36.7999 44.4667 37.1432 44.4667 37.5666V39.8666H43.2077C42.8637 38.5141 41.6456 37.5674 40.25 37.5674C38.8544 37.5674 37.6363 38.5141 37.2923 39.8666H36.0333V37.5666C36.0333 37.1432 36.3766 36.7999 36.8 36.7999H43.7ZM41.7833 40.6333C41.7833 41.48 41.0968 42.1666 40.25 42.1666C39.4032 42.1666 38.7167 41.48 38.7167 40.6333C38.7167 39.7865 39.4032 39.0999 40.25 39.0999C41.0968 39.0999 41.7833 39.7865 41.7833 40.6333ZM43.7 44.4666H36.8C36.3766 44.4666 36.0333 44.1233 36.0333 43.6999V41.3999H37.2923C37.6363 42.7525 38.8544 43.6992 40.25 43.6992C41.6456 43.6992 42.8637 42.7525 43.2077 41.3999H44.4667V43.6999C44.4667 44.1233 44.1234 44.4666 43.7 44.4666Z" fill="#36276E"/>
<path d="M40.25 19.9333C39.1913 19.9333 38.3333 20.7914 38.3333 21.85V22.5261L36.3759 21.5472C36.1082 21.4132 35.7866 21.4476 35.553 21.6351C35.3198 21.8227 35.2169 22.1293 35.2895 22.4198L35.6399 23.821C35.96 25.114 36.9217 26.152 38.1862 26.5706C38.7799 26.7671 39.4212 26.7671 40.0145 26.5706L40.1871 26.5129C41.3704 26.1202 42.1682 25.0133 42.1667 23.7667V23H42.9333V21.4667H42.1277C41.9454 20.5746 41.1608 19.9333 40.25 19.9333ZM40.6333 23.7667C40.6337 24.3525 40.2586 24.8729 39.7027 25.0578L39.5294 25.1151C39.2505 25.2072 38.9495 25.2072 38.6706 25.1151C37.9818 24.8879 37.4371 24.3544 37.1949 23.6708L37.6472 23.9007C38.123 24.1388 38.6882 24.1133 39.1408 23.8333C39.593 23.5529 39.8678 23.0584 39.8667 22.5261V21.85C39.8667 21.6381 40.0381 21.4667 40.25 21.4667C40.4619 21.4667 40.6333 21.6381 40.6333 21.85V23.7667Z" fill="#36276E"/>
<path d="M26.0667 22.2332H27.6V23.7665H26.0667V22.2332Z" fill="#36276E"/>
<path d="M29.1333 22.2332H30.6667V23.7665H29.1333V22.2332Z" fill="#36276E"/>
<path d="M27.2436 16.0134C26.7888 16.1849 26.319 16.3376 25.8458 16.4641L26.243 17.9454C26.7659 17.8051 27.2848 17.6385 27.7872 17.4468L27.2436 16.0134Z" fill="#36276E"/>
<path d="M35.2753 11.6193L35.3341 11.5351L34.08 10.6565L34.0201 10.7418C33.7581 11.1151 33.4766 11.4808 33.1819 11.8263L34.3499 12.8232C34.6756 12.4354 34.9867 12.0319 35.2753 11.6193Z" fill="#36276E"/>
<path d="M31.0668 13.8562L32.0128 15.0628C32.4396 14.7292 32.8491 14.3743 33.2396 13.9993L32.1772 12.8938C31.8234 13.233 31.4528 13.5542 31.0668 13.8562Z" fill="#36276E"/>
<path d="M29.8671 14.7021C29.453 14.9638 29.0263 15.2049 28.5883 15.4239L29.273 16.7955C29.7544 16.5555 30.2298 16.2871 30.6865 15.9989L29.8671 14.7021Z" fill="#36276E"/>
<path d="M32.1753 33.1062L33.2381 32.0008C32.8472 31.6257 32.4381 31.2708 32.0113 30.9373L31.0653 32.1438C31.4513 32.4459 31.8219 32.7671 32.1753 33.1062Z" fill="#36276E"/>
<path d="M34.08 35.3434L35.3341 34.4626L35.2761 34.3787C34.9867 33.9658 34.6756 33.5623 34.3499 33.1797L33.1819 34.1766C33.4766 34.5221 33.7581 34.8878 34.0209 35.2622L34.08 35.3434Z" fill="#36276E"/>
<path d="M27.2436 29.9865L27.7872 28.5531C27.2848 28.3629 26.7659 28.1948 26.243 28.0544L25.8458 29.5357C26.319 29.6623 26.7888 29.815 27.2436 29.9865Z" fill="#36276E"/>
<path d="M29.8671 31.2979L30.6865 30.0012C30.2265 29.713 29.7544 29.4445 29.273 29.2046L28.5883 30.5762C29.0263 30.7952 29.453 31.0363 29.8671 31.2979Z" fill="#36276E"/>
<path d="M8.24167 20.7H9.775V22.2333H8.24167V20.7Z" fill="#36276E"/>
<path d="M8.24167 23.7666H9.775V25.2999H8.24167V23.7666Z" fill="#36276E"/>
</g>
<defs>
<clipPath id="clip0">
<rect width="46" height="46" fill="white"/>
</clipPath>
</defs>
</svg>
