<svg width="100" height="100" viewBox="0 0 100 100" fill="none" xmlns="http://www.w3.org/2000/svg">
<path d="M52.6813 45.9626L48.8694 44.0574C48.5074 43.8764 48.2792 43.5077 48.2792 43.1036C48.2792 42.6995 48.5074 42.3308 48.8694 42.1497C49.5833 41.7936 50.4234 41.7936 51.1382 42.1497L52.6897 42.9226C53.5417 43.3486 54.578 43.0026 55.0032 42.1497C55.4292 41.2978 55.0831 40.2623 54.2312 39.8363L52.688 39.066C52.3808 38.9237 52.0625 38.8084 51.7359 38.7208V36.207H48.2758V38.7225C47.9484 38.8101 47.6301 38.9254 47.322 39.0677C45.7932 39.8329 44.8284 41.3954 44.8284 43.1053C44.8284 44.8151 45.7932 46.3776 47.322 47.1428L51.1331 49.0488C51.4943 49.229 51.7224 49.5977 51.7224 50.0018C51.7224 50.4059 51.4943 50.7746 51.1331 50.9556C50.4167 51.3084 49.5774 51.3084 48.8618 50.9556L47.3186 50.1828C46.4667 49.7568 45.4312 50.1028 45.0052 50.9556C44.5792 51.8076 44.9252 52.8431 45.7772 53.2691L47.3186 54.0394C47.6268 54.1817 47.945 54.297 48.2725 54.3846V56.8967H51.7207V54.3812C52.0482 54.2928 52.3673 54.1775 52.6754 54.036C54.2051 53.2708 55.1699 51.7083 55.1699 49.9984C55.1699 48.2886 54.2051 46.7261 52.6754 45.9609L52.6813 45.9626Z" fill="white"/>
<path d="M98.2759 62.0689H93.1034V12.0689C93.0976 7.30987 89.2418 3.45414 84.4828 3.44824H15.5172C10.7582 3.45414 6.90244 7.30987 6.89655 12.0689V62.0689H1.72414C0.771989 62.0689 0 62.8409 0 63.7931V67.2413C0.00841864 73.903 5.40729 79.3019 12.069 79.3103H44.8276V91.3793C44.8276 94.2357 47.1436 96.5517 50 96.5517C52.8564 96.5517 55.1724 94.2357 55.1724 91.3793V79.3103H87.931C94.5927 79.3019 99.9916 73.903 100 67.2413V63.7931C100 62.8409 99.228 62.0689 98.2759 62.0689ZM10.3448 12.0689C10.3448 9.21249 12.6608 6.89652 15.5172 6.89652H84.4828C87.3392 6.89652 89.6552 9.21249 89.6552 12.0689V62.0689H63.6567C67.0343 59.1216 69.3536 55.1496 70.2603 50.7602C70.3117 50.5068 70.3378 50.2534 70.3807 50H79.3103V46.5517H70.6897C70.6888 45.3958 70.5895 44.2425 70.395 43.1034H79.3103V39.6551H69.4934C68.3341 36.3247 66.328 33.3538 63.6727 31.0344H84.4828C85.4349 31.0344 86.2069 30.2625 86.2069 29.3103C86.2069 28.3582 85.4349 27.5862 84.4828 27.5862H81.0345V20.6896C81.0345 19.7375 80.2625 18.9655 79.3103 18.9655H74.1379V12.0689C74.1379 11.1168 73.3659 10.3448 72.4138 10.3448H65.5172C64.5651 10.3448 63.7931 11.1168 63.7931 12.0689V15.5172H58.6207C57.6685 15.5172 56.8966 16.2892 56.8966 17.2413V27.0693C56.0202 26.7527 55.1227 26.4951 54.2118 26.2981C51.0927 25.6541 47.8659 25.745 44.788 26.5641C44.7981 26.331 44.8276 26.0986 44.8276 25.8654C44.8276 17.2952 37.8805 10.3482 29.3103 10.3482C20.7402 10.3482 13.7931 17.2952 13.7931 25.8654C13.7931 34.4356 20.7402 41.3826 29.3103 41.3826C29.5646 41.3801 29.8146 41.3212 30.0428 41.2101C29.9417 41.5881 29.8256 41.9602 29.7447 42.3499C29.4585 43.7323 29.3129 45.1399 29.3103 46.5517H20.6897V50H29.6084C29.8096 51.1735 30.1126 52.3269 30.5142 53.4482H20.6897V56.8965H32.1138C32.3082 57.2307 32.4901 57.5725 32.7031 57.8983C33.7217 59.4448 34.9433 60.8474 36.3349 62.0689H10.3448V12.0689ZM60.3448 27.5862V18.9655H63.7931V27.5862H60.3448ZM67.2414 27.5862V13.7931H70.6897V27.5862H67.2414ZM74.1379 27.5862V22.4138H77.5862V27.5862H74.1379ZM29.3103 24.1379C28.3582 24.1379 27.5862 24.9099 27.5862 25.862V37.8089C21.4313 36.9191 16.9594 31.4983 17.2565 25.287C17.5537 19.0749 22.5232 14.1054 28.7354 13.8082C34.9466 13.511 40.3674 17.983 41.2572 24.1379H29.3103ZM41.2572 27.5862C41.2429 27.6813 41.2194 27.7722 41.2034 27.8657C36.664 29.9956 33.0507 33.6998 31.0345 38.2913V27.5862H41.2572ZM44.8276 75.862H12.069C7.30991 75.8561 3.45417 72.0004 3.44828 67.2413V65.5172H33.1383L33.8808 68.4982C34.4575 70.7999 36.5268 72.4146 38.9 72.4138H44.8276V75.862ZM44.8276 68.9655H38.8967C38.1053 68.9663 37.415 68.4284 37.2222 67.6606L36.6893 65.5172H41.7379C42.7389 65.9415 43.7727 66.2875 44.8276 66.5519V68.9655ZM51.7241 91.3793C51.7241 92.3314 50.9521 93.1034 50 93.1034C49.0479 93.1034 48.2759 92.3314 48.2759 91.3793V79.3103H51.7241V91.3793ZM51.7241 75.862H48.2759V67.1572C48.8652 67.2068 49.4553 67.2481 50.0413 67.2481C50.6272 67.2481 51.1651 67.2186 51.7241 67.1723V75.862ZM46.4911 63.4311C45.2182 63.1625 43.9807 62.7517 42.8004 62.2053C35.3086 58.8143 31.1978 50.6558 32.932 42.6177C34.6663 34.5795 41.775 28.8406 49.9983 28.8406C58.2216 28.8406 65.3303 34.5795 67.0646 42.6177C68.7988 50.6558 64.688 58.8143 57.1963 62.2053L57.171 62.2171C53.8355 63.7594 50.0918 64.1854 46.4945 63.4311H46.4911ZM63.3107 65.5172L62.7744 67.6589C62.5825 68.4267 61.8922 68.9663 61.1 68.9655H55.1724V66.5813C56.2264 66.3086 57.2569 65.9525 58.2553 65.5172H63.3107ZM96.5517 67.2413C96.5458 72.0004 92.6901 75.8561 87.931 75.862H55.1724V72.4138H61.0966C63.4698 72.4146 65.5391 70.7991 66.1158 68.4966L66.8617 65.5172H96.5517V67.2413Z" fill="white"/>
</svg>
