<svg width="46" height="46" viewBox="0 0 46 46" fill="none" xmlns="http://www.w3.org/2000/svg">
<path d="M3.06665 5.4624H4.59999V6.99574H3.06665V5.4624Z" fill="#36276E"/>
<path d="M6.13336 5.4624H7.6667V6.99574H6.13336V5.4624Z" fill="#36276E"/>
<path d="M9.20004 5.4624H10.7334V6.99574H9.20004V5.4624Z" fill="#36276E"/>
<path d="M28.9702 19.2625C24.3126 19.2625 20.5369 23.0381 20.5369 27.6958C20.5369 32.3535 24.3126 36.1292 28.9702 36.1292C33.6279 36.1292 37.4036 32.3535 37.4036 27.6958C37.398 23.0404 33.6257 19.2677 28.9702 19.2625ZM28.9702 34.5958C25.1593 34.5958 22.0702 31.5063 22.0702 27.6958C22.0702 23.8849 25.1593 20.7958 28.9702 20.7958C32.7807 20.7958 35.8703 23.8849 35.8703 27.6958C35.8658 31.5048 32.7792 34.5914 28.9702 34.5958Z" fill="#36276E"/>
<path d="M39.3371 32.6414C41.1512 28.8829 40.766 24.4338 38.3335 21.0425V3.16242C38.3335 2.73903 37.9902 2.39575 37.5668 2.39575H0.766669C0.343279 2.39575 0 2.73903 0 3.16242V33.0625C0 34.7561 1.37312 36.1292 3.06668 36.1292H21.1777C25.053 39.7361 30.8966 40.2137 35.3057 37.2837L41.4391 43.4171C41.7386 43.7165 42.2241 43.7165 42.5232 43.4171L45.7756 40.1647C46.0747 39.8656 46.0747 39.3801 45.7756 39.081L39.3371 32.6414ZM1.53334 3.92909H36.8001V8.52911H1.53334V3.92909ZM1.53334 33.0625V10.0624H36.8001V19.2969C33.2771 15.985 28.0504 15.2498 23.7507 17.4615C22.0979 14.0538 18.2028 12.3654 14.5858 13.4896C10.9692 14.6138 8.71712 18.2124 9.28763 21.9567C9.85777 25.7009 13.0794 28.4663 16.8667 28.4625C17.082 28.4625 17.2946 28.4415 17.5069 28.4247C17.6469 30.6614 18.4412 32.8076 19.7915 34.5959H3.06668C2.2199 34.5959 1.53334 33.9093 1.53334 33.0625ZM17.5106 26.8906C17.2969 26.9149 17.082 26.9277 16.8667 26.9292C16.5283 26.9269 16.1906 26.897 15.8571 26.8386L15.759 26.6125C15.3779 25.7275 15.0874 24.8059 14.8917 23.8625H18.141C17.7944 24.8384 17.5821 25.8574 17.5106 26.8906ZM17.8939 14.7553L17.9239 14.8227C18.3357 15.7556 18.6464 16.73 18.8508 17.7291H14.8797C15.0803 16.7528 15.3828 15.8001 15.7826 14.8871L15.841 14.7553C16.5193 14.6314 17.2141 14.6314 17.8924 14.7553H17.8939ZM19.8009 15.4228C20.788 15.9588 21.6086 16.757 22.1713 17.7291H20.4133C20.2662 16.9464 20.0607 16.1752 19.7994 15.4228H19.8009ZM19.1667 21.111L19.1529 21.7425C19.0357 21.9357 18.9167 22.1259 18.8111 22.3292H14.6502C14.5446 21.3098 14.5428 20.2822 14.6442 19.2625H19.09C19.1533 19.8764 19.1787 20.4937 19.1667 21.111ZM10.7334 20.7958C10.7352 20.2781 10.803 19.763 10.9351 19.2625H13.1101C13.0162 20.2826 13.0162 21.3091 13.1101 22.3292H10.9325C10.8015 21.8286 10.7345 21.3132 10.7334 20.7958ZM13.3302 17.7291H11.5667C12.1334 16.7483 12.9593 15.9427 13.9535 15.3999C13.687 16.1595 13.4785 16.9381 13.3302 17.7291ZM13.3302 23.8625C13.4833 24.6569 13.6971 25.4389 13.9696 26.2007C12.9667 25.6583 12.1338 24.8489 11.5629 23.8625H13.3302ZM20.6604 19.7645C20.6495 19.5975 20.6409 19.4294 20.6256 19.2625H21.1747C21.0014 19.4257 20.8288 19.5912 20.6634 19.7645H20.6604ZM19.0035 27.6958C18.9987 23.4458 21.6921 19.6615 25.7093 18.2742C29.7264 16.8869 34.1812 18.2023 36.8001 21.5494V21.5625H36.8102C39.4966 24.996 39.6381 29.7776 37.1595 33.3643C34.6806 36.9509 30.1577 38.5086 25.996 37.2096C21.8344 35.9102 19.0013 32.0555 19.0035 27.6958ZM41.9811 41.7909L36.5302 36.34C37.3055 35.6639 37.9876 34.8875 38.5581 34.0313L44.1494 39.623L41.9811 41.7909Z" fill="#36276E"/>
</svg>
