<svg width="68" height="68" viewBox="0 0 68 68" fill="none" xmlns="http://www.w3.org/2000/svg">
<path d="M37.3973 49.7679C38.3947 48.8497 39.0211 47.5342 39.0211 46.0748C39.0211 43.3062 36.7687 41.0537 34.0001 41.0537C31.2315 41.0537 28.9791 43.3062 28.9791 46.0748C28.9791 47.5343 29.6055 48.8498 30.6029 49.7679C27.294 51.114 24.9542 54.3627 24.9542 58.1493C24.9542 58.6996 25.4002 59.1454 25.9503 59.1454H42.0497C42.6 59.1454 43.0458 58.6996 43.0458 58.1493C43.0458 54.3627 40.7061 51.114 37.3973 49.7679ZM30.9713 46.0748C30.9713 44.4047 32.33 43.0459 34.0001 43.0459C35.6701 43.0459 37.0289 44.4046 37.0289 46.0748C37.0289 47.7448 35.6702 49.1036 34.0001 49.1036C32.33 49.1036 30.9713 47.7448 30.9713 46.0748ZM27.0165 57.1532C27.502 53.7339 30.4487 51.0958 34.0001 51.0958C37.5514 51.0958 40.4982 53.7339 40.9835 57.1532H27.0165Z" fill="white"/>
<path d="M53.9332 46.0748C53.9332 47.5343 54.5595 48.8498 55.5571 49.7679C52.2482 51.114 49.9084 54.3627 49.9084 58.1493C49.9084 58.6996 50.3543 59.1454 50.9045 59.1454H67.0039C67.5542 59.1454 68 58.6996 68 58.1493C68 54.3627 65.6603 51.114 62.3514 49.7679C63.3488 48.8497 63.9752 47.5342 63.9752 46.0748C63.9752 43.3062 61.7228 41.0537 58.9542 41.0537C56.1856 41.0537 53.9332 43.3062 53.9332 46.0748ZM65.9377 57.1532H51.9708C52.4561 53.7339 55.4029 51.0958 58.9543 51.0958C62.5056 51.0958 65.4523 53.7339 65.9377 57.1532ZM61.983 46.0748C61.983 47.7448 60.6243 49.1036 58.9542 49.1036C57.2841 49.1036 55.9253 47.7449 55.9253 46.0748C55.9253 44.4047 57.2839 43.0459 58.9542 43.0459C60.6243 43.0459 61.983 44.4047 61.983 46.0748Z" fill="white"/>
<path d="M12.4431 49.7679C13.4405 48.8497 14.0668 47.5342 14.0668 46.0748C14.0668 43.3062 11.8145 41.0537 9.04586 41.0537C6.27725 41.0537 4.02488 43.3062 4.02488 46.0748C4.02488 47.5343 4.65123 48.8498 5.64865 49.7679C2.33976 51.1141 0 54.3627 0 58.1493C0 58.6996 0.445984 59.1454 0.996094 59.1454H17.0956C17.6457 59.1454 18.0917 58.6996 18.0917 58.1493C18.0917 54.3627 15.752 51.114 12.4431 49.7679ZM6.01707 46.0748C6.01707 44.4047 7.37574 43.0459 9.04586 43.0459C10.716 43.0459 12.0746 44.4046 12.0746 46.0748C12.0746 47.7448 10.716 49.1036 9.04586 49.1036C7.37574 49.1036 6.01707 47.7448 6.01707 46.0748ZM2.06231 57.1532C2.54774 53.7339 5.49445 51.0958 9.04586 51.0958C12.5973 51.0958 15.544 53.7339 16.0294 57.1532H2.06231Z" fill="white"/>
<path d="M9.31421 38.3503C9.86432 38.3503 10.3103 37.9044 10.3103 37.3542V32.9839H33.004V37.3542C33.004 37.9044 33.45 38.3503 34.0001 38.3503C34.5503 38.3503 34.9962 37.9044 34.9962 37.3542V32.9839H57.6898V37.3542C57.6898 37.9044 58.1357 38.3503 58.6859 38.3503C59.2362 38.3503 59.682 37.9044 59.682 37.3542V31.9878C59.682 31.4375 59.2362 30.9917 58.6859 30.9917H34.9962V26.9466H42.0497C42.5999 26.9466 43.0458 26.5007 43.0458 25.9505V21.3889C43.0458 20.8387 42.5999 20.3928 42.0497 20.3928H25.9503C25.4002 20.3928 24.9542 20.8387 24.9542 21.3889V25.9505C24.9542 26.5007 25.4002 26.9466 25.9503 26.9466H33.004V30.9917H9.31421C8.7641 30.9917 8.31812 31.4375 8.31812 31.9878V37.3542C8.31812 37.9043 8.7641 38.3503 9.31421 38.3503ZM26.9464 22.385H41.0536V24.9544H26.9464V22.385Z" fill="white"/>
<path d="M42.0497 61.4463H25.9503C25.4002 61.4463 24.9542 61.8921 24.9542 62.4424V67.004C24.9542 67.5542 25.4002 68.0001 25.9503 68.0001H42.0497C42.6 68.0001 43.0458 67.5542 43.0458 67.004V62.4424C43.0458 61.8923 42.6 61.4463 42.0497 61.4463ZM41.0536 66.0079H26.9464V63.4385H41.0536V66.0079Z" fill="white"/>
<path d="M25.9503 18.0917H34.5965C35.1468 18.0917 35.5926 17.6459 35.5926 17.0956C35.5926 16.5454 35.1468 16.0995 34.5965 16.0995H27.0165C27.502 12.6801 30.4487 10.042 34.0001 10.042C37.5514 10.042 40.4982 12.6801 40.9835 16.0995H39.2462C38.6959 16.0995 38.2501 16.5454 38.2501 17.0956C38.2501 17.6459 38.6959 18.0917 39.2462 18.0917H42.0497C42.6 18.0917 43.0458 17.6459 43.0458 17.0956C43.0458 13.3089 40.7061 10.0603 37.3972 8.71409C38.3946 7.79583 39.0209 6.48032 39.0209 5.02098C39.0211 2.25237 36.7687 0 34.0001 0C31.2315 0 28.9791 2.25237 28.9791 5.02098C28.9791 6.48045 29.6055 7.79596 30.6029 8.71409C27.294 10.0601 24.9542 13.3089 24.9542 17.0956C24.9542 17.6457 25.4002 18.0917 25.9503 18.0917ZM30.9713 5.02098C30.9713 3.35086 32.33 1.99219 34.0001 1.99219C35.6701 1.99219 37.0289 3.35086 37.0289 5.02098C37.0289 6.69109 35.6701 8.04963 34.0001 8.04963C32.33 8.04963 30.9713 6.69096 30.9713 5.02098Z" fill="white"/>
<path d="M67.0039 61.4463H65.0307C64.4804 61.4463 64.0346 61.8921 64.0346 62.4424C64.0346 62.9926 64.4804 63.4385 65.0307 63.4385H66.0078V66.0079H51.9004V63.4385H60.3768C60.927 63.4385 61.3729 62.9926 61.3729 62.4424C61.3729 61.8921 60.927 61.4463 60.3768 61.4463H50.9043C50.3541 61.4463 49.9082 61.8921 49.9082 62.4424V67.004C49.9082 67.5542 50.3541 68.0001 50.9043 68.0001H67.0039C67.5541 68.0001 67.9999 67.5542 67.9999 67.004V62.4424C67.9999 61.8923 67.5541 61.4463 67.0039 61.4463Z" fill="white"/>
<path d="M17.0956 61.4463H15.1224C14.5723 61.4463 14.1263 61.8921 14.1263 62.4424C14.1263 62.9926 14.5723 63.4385 15.1224 63.4385H16.0995V66.0079H1.99219V63.4385H10.4685C11.0187 63.4385 11.4646 62.9926 11.4646 62.4424C11.4646 61.8921 11.0187 61.4463 10.4685 61.4463H0.996094C0.445984 61.4463 0 61.8921 0 62.4424V67.004C0 67.5542 0.445984 68.0001 0.996094 68.0001H17.0956C17.6457 68.0001 18.0917 67.5542 18.0917 67.004V62.4424C18.0917 61.8923 17.6457 61.4463 17.0956 61.4463Z" fill="white"/>
</svg>
