<svg width="66" height="66" viewBox="0 0 66 66" fill="none" xmlns="http://www.w3.org/2000/svg">
<g clip-path="url(#clip0)">
<path d="M23.4248 47.2846C23.3316 47.258 23.2363 47.2431 23.1402 47.2379C24.5523 45.7538 25.4219 43.7489 25.4219 41.5436V34.7617C25.4219 34.6997 25.4159 34.6393 25.4076 34.5797C25.4161 34.4572 25.4219 34.334 25.4219 34.2095V29.9187C25.4219 29.2068 24.8447 28.6296 24.1328 28.6296H15.4867C11.8457 28.6296 8.8837 31.5918 8.8837 35.2326V41.5436C8.8837 43.7489 9.75318 45.7538 11.1653 47.2379C11.0694 47.2431 10.974 47.258 10.881 47.2846C4.78925 47.8362 0 52.9706 0 59.2035V64.7109C0 65.4229 0.577113 66 1.28906 66H33.0164C33.7283 66 34.3054 65.4229 34.3054 64.7109V59.2035C34.3054 52.9708 29.5164 47.8363 23.4248 47.2846ZM11.4618 36.8673V35.2325C11.4618 33.0132 13.2674 31.2076 15.4867 31.2076H22.8437V34.2093C22.8437 35.7205 21.6144 36.9499 20.1032 36.9499H11.4618V36.8673ZM11.4618 39.528H20.1032C21.105 39.528 22.0428 39.2493 22.8437 38.7657V41.5435C22.8437 44.6814 20.2907 47.2344 17.1528 47.2344C14.0148 47.2344 11.4618 44.6814 11.4618 41.5435V39.528ZM19.9584 49.8127L17.1528 52.6185L14.3471 49.8127H19.9584ZM31.7274 63.4218H2.57812V60.8437H7.92773C8.63968 60.8437 9.2168 60.2666 9.2168 59.5547C9.2168 58.8427 8.63968 58.2656 7.92773 58.2656H2.62518C3.05817 53.9194 6.46736 50.4388 10.7791 49.8907L16.2413 55.3528C16.483 55.5945 16.8109 55.7304 17.1528 55.7304C17.4946 55.7304 17.8226 55.5945 18.0643 55.3528L23.5264 49.8907C28.1444 50.4776 31.7274 54.4287 31.7274 59.2035V63.4218Z" fill="#36276E"/>
<path d="M55.1197 18.6551C55.0265 18.6285 54.931 18.6135 54.8348 18.6084C56.2468 17.1243 57.1163 15.1194 57.1163 12.9141V6.13207C57.1163 6.07007 57.1104 6.00961 57.102 5.95005C57.1105 5.82759 57.1163 5.70436 57.1163 5.57984V1.28906C57.1163 0.577113 56.5392 0 55.8273 0H47.1811C43.5402 0 40.5782 2.96214 40.5782 6.60296V12.914C40.5782 15.1193 41.4476 17.1242 42.8597 18.6083C42.7636 18.6134 42.668 18.6284 42.5748 18.6549C36.4833 19.2068 31.6945 24.3412 31.6945 30.5739V36.0811C31.6945 36.7931 32.2716 37.3702 32.9835 37.3702H43.3553C44.0673 37.3702 44.6444 36.7931 44.6444 36.0811C44.6444 35.3692 44.0673 34.7921 43.3553 34.7921H34.2726V30.574C34.2726 25.7992 37.8555 21.8481 42.4735 21.2612L47.9356 26.7233C48.1874 26.9751 48.5172 27.1009 48.8471 27.1009C49.177 27.1009 49.507 26.9751 49.7586 26.7233L55.2208 21.2612C59.839 21.8482 63.4219 25.7992 63.4219 30.574V34.7922H53.9258C53.2138 34.7922 52.6367 35.3693 52.6367 36.0812C52.6367 36.7932 53.2138 37.3703 53.9258 37.3703H64.711C65.4229 37.3703 66 36.7932 66 36.0812V30.574C66 24.3414 61.211 19.2069 55.1197 18.6551ZM48.8474 23.9888L46.0417 21.1832H51.653L48.8474 23.9888ZM54.5383 12.914C54.5383 16.0519 51.9853 18.6049 48.8474 18.6049C45.7094 18.6049 43.1564 16.0521 43.1564 12.9141V10.8985H51.7978C52.7996 10.8985 53.7374 10.6197 54.5383 10.1362V12.914V12.914ZM54.5383 5.57984C54.5383 7.091 53.3089 8.32038 51.7978 8.32038H43.1564V8.23775V6.60296C43.1564 4.38371 44.962 2.57812 47.1813 2.57812H54.5383V5.57984Z" fill="#36276E"/>
<path d="M49.7591 35.1694C49.5194 34.9297 49.1868 34.7917 48.8478 34.7917C48.5075 34.7917 48.1762 34.9297 47.9364 35.1694C47.6954 35.4092 47.5587 35.7418 47.5587 36.0808C47.5587 36.4211 47.6954 36.7524 47.9364 36.9922C48.1762 37.2332 48.5075 37.3699 48.8478 37.3699C49.1868 37.3699 49.5194 37.2332 49.7591 36.9922C49.9989 36.7524 50.1368 36.4211 50.1368 36.0808C50.1368 35.7418 49.9989 35.4092 49.7591 35.1694Z" fill="#36276E"/>
<path d="M34.4702 18.0377L29.0792 12.6467V6.44531C29.0792 2.89137 26.1878 0 22.6339 0H6.44531C2.89137 0 0 2.89137 0 6.44531V17.7891C0 21.343 2.89137 24.2344 6.44531 24.2344H22.6337C25.2988 24.2344 27.6227 22.635 28.5977 20.2383H33.5586C34.0798 20.2383 34.55 19.9241 34.7495 19.4425C34.9491 18.9609 34.8387 18.4064 34.4702 18.0377ZM27.6574 17.6602C27.0568 17.6602 26.5357 18.0748 26.401 18.6602C25.9952 20.4242 24.4462 21.6562 22.6337 21.6562H6.44531C4.31295 21.6562 2.57812 19.9214 2.57812 17.7891V6.44531C2.57812 4.31295 4.31295 2.57812 6.44531 2.57812H22.6337C24.7661 2.57812 26.5009 4.31295 26.5009 6.44531V13.1807C26.5009 13.5225 26.6368 13.8505 26.8785 14.0922L30.4465 17.6602H27.6574Z" fill="#36276E"/>
<path d="M59.5547 41.7656H43.3663C40.7013 41.7656 38.3774 43.365 37.4023 45.7617H32.4415C31.9202 45.7617 31.4501 46.0759 31.2505 46.5575C31.051 47.0391 31.1613 47.5936 31.5299 47.9623L36.9208 53.3533V59.5547C36.9208 63.1086 39.8122 66 43.3662 66H59.5547C63.1087 66 66 63.1086 66 59.5547V48.2109C66 44.657 63.1087 41.7656 59.5547 41.7656ZM63.4219 59.5547C63.4219 61.6871 61.6871 63.4219 59.5547 63.4219H43.3663C41.2339 63.4219 39.4991 61.6871 39.4991 59.5547V52.8193C39.4991 52.4775 39.3632 52.1495 39.1215 51.9078L35.5535 48.3398H38.3427C38.9433 48.3398 39.4643 47.9252 39.599 47.3398C40.0048 45.5758 41.5539 44.3438 43.3663 44.3438H59.5547C61.6871 44.3438 63.4219 46.0786 63.4219 48.2109V59.5547Z" fill="#36276E"/>
<path d="M57.2544 50.4527C56.7512 49.9494 55.935 49.9494 55.4316 50.4527L52.0049 53.8794L50.4115 52.286C49.9081 51.7827 49.0919 51.7827 48.5883 52.286C48.085 52.7894 48.085 53.6056 48.5883 54.1092L51.0932 56.6141C51.345 56.8658 51.6749 56.9916 52.0047 56.9916C52.3346 56.9916 52.6646 56.8658 52.9162 56.6141L57.2544 52.2759C57.7578 51.7725 57.7578 50.9562 57.2544 50.4527Z" fill="#36276E"/>
<path d="M20.3998 8.54219C20.2475 6.33183 18.4657 4.55009 16.2554 4.39772C15.002 4.31149 13.8073 4.7343 12.8921 5.58869C11.9896 6.43109 11.4719 7.62218 11.4719 8.85633C11.4721 9.56841 12.0492 10.1455 12.7611 10.1455C13.4731 10.1455 14.0502 9.56841 14.0502 8.85646C14.0502 8.32653 14.2636 7.83539 14.6514 7.47343C15.0385 7.11197 15.5457 6.93254 16.0783 6.96992C17.0114 7.03424 17.7636 7.78641 17.8279 8.71956C17.893 9.66303 17.2745 10.4968 16.3573 10.702C15.3534 10.9266 14.6523 11.7994 14.6523 12.8245V13.5122C14.6523 14.2241 15.2294 14.8012 15.9414 14.8012C16.6533 14.8012 17.2304 14.2241 17.2304 13.5122V13.137C19.2277 12.5412 20.5458 10.6583 20.3998 8.54219Z" fill="#36276E"/>
<path d="M16.8533 17.5339C16.6135 17.2942 16.2809 17.1562 15.9419 17.1562C15.6016 17.1562 15.2703 17.2942 15.0305 17.5339C14.7895 17.7737 14.6528 18.1063 14.6528 18.4453C14.6528 18.7843 14.7895 19.1169 15.0305 19.3567C15.2703 19.5964 15.6016 19.7344 15.9419 19.7344C16.2809 19.7344 16.6135 19.5964 16.8533 19.3567C17.093 19.1169 17.231 18.7843 17.231 18.4453C17.231 18.1063 17.093 17.7737 16.8533 17.5339Z" fill="#36276E"/>
<path d="M13.9954 58.6433C13.7556 58.4036 13.423 58.2656 13.084 58.2656C12.745 58.2656 12.4124 58.4036 12.1726 58.6433C11.9329 58.8831 11.7949 59.2157 11.7949 59.5547C11.7949 59.8937 11.9329 60.2263 12.1726 60.4661C12.4124 60.7058 12.745 60.8438 13.084 60.8438C13.423 60.8438 13.7556 60.7058 13.9954 60.4661C14.2351 60.2263 14.373 59.8937 14.373 59.5547C14.373 59.2157 14.2351 58.8831 13.9954 58.6433Z" fill="#36276E"/>
</g>
<defs>
<clipPath id="clip0">
<rect width="66" height="66" fill="white"/>
</clipPath>
</defs>
</svg>
