<svg width="86" height="86" viewBox="0 0 86 86" fill="none" xmlns="http://www.w3.org/2000/svg">
<path d="M34.8671 22.8438C35.717 22.8437 36.546 23.1077 37.2393 23.5993C37.9327 24.0908 38.4562 24.7856 38.7376 25.5876C39.0189 26.3896 39.0441 27.2592 38.8098 28.0762C38.5754 28.8931 38.093 29.6171 37.4293 30.148L32.7539 33.8882C32.5966 34.0141 32.4697 34.1738 32.3824 34.3555C32.2952 34.5371 32.25 34.736 32.25 34.9375V38.9688H34.9375V35.5833L39.1083 32.2466C40.2068 31.3678 41.0052 30.1694 41.393 28.8171C41.7809 27.4649 41.7391 26.0255 41.2734 24.6981C40.8077 23.3706 39.9412 22.2206 38.7936 21.4069C37.6459 20.5933 36.2739 20.1563 34.8671 20.1562H33.6641C31.8642 20.1583 30.1385 20.8742 28.8657 22.147C27.593 23.4198 26.877 25.1454 26.875 26.9454V29.5625H29.5625V26.9454C29.5637 25.8579 29.9962 24.8154 30.7652 24.0464C31.5341 23.2775 32.5767 22.845 33.6641 22.8438H34.8671Z" fill="white"/>
<path d="M34.9375 41.6562H32.25V44.3438H34.9375V41.6562Z" fill="white"/>
<path d="M2.74102 60.8445C2.82234 61.1237 2.99207 61.3691 3.22471 61.5436C3.45735 61.7181 3.74034 61.8125 4.03118 61.8125H23.9583C25.6591 67.7655 29.1756 73.0393 34.0171 76.8981C39.2341 81.074 45.7237 83.3377 52.4062 83.3125H81.9687C82.2596 83.3127 82.5428 83.2185 82.7756 83.044C83.0084 82.8695 83.1783 82.6242 83.2598 82.3448C83.3412 82.0655 83.3298 81.7673 83.2272 81.495C83.1246 81.2228 82.9364 80.9911 82.6909 80.835L73.1789 74.7824C76.7295 71.2759 79.3348 66.9278 80.752 62.1431C82.1693 57.3584 82.3524 52.2929 81.2844 47.4183C80.2163 42.5438 77.9318 38.0189 74.6436 34.2652C71.3555 30.5115 67.1708 27.6512 62.4793 25.9507C59.5837 12.6662 47.7331 2.6875 33.5937 2.6875C17.2928 2.6875 4.03118 15.9491 4.03118 32.25C4.03203 36.163 4.80942 40.0368 6.3183 43.6472C7.82718 47.2575 10.0376 50.5325 12.8213 53.2824L3.30892 59.335C3.06366 59.4912 2.87572 59.7229 2.77331 59.9951C2.67091 60.2673 2.65958 60.5653 2.74102 60.8445ZM79.2812 53.75C79.2804 57.5798 78.4613 61.3653 76.8787 64.8528C75.2962 68.3404 72.9868 71.4495 70.105 73.9721C69.948 74.1096 69.8252 74.2818 69.7463 74.475C69.6673 74.6683 69.6345 74.8773 69.6504 75.0854C69.6663 75.2935 69.7305 75.4951 69.8378 75.6741C69.9452 75.8531 70.0927 76.0047 70.2688 76.1167L77.3539 80.625H52.4062C46.3318 80.6481 40.4326 78.5907 35.6901 74.795C31.4922 71.4491 28.3846 66.9299 26.7627 61.8125H33.5937C49.8945 61.8125 63.1562 48.5509 63.1562 32.25C63.1558 31.176 63.0972 30.1029 62.9808 29.0352C67.8224 31.1019 71.9492 34.5469 74.8475 38.9414C77.7459 43.3359 79.2877 48.4858 79.2812 53.75ZM15.7302 54.6167C15.9063 54.5047 16.0538 54.3531 16.1612 54.1741C16.2685 53.9951 16.3327 53.7936 16.3486 53.5855C16.3645 53.3774 16.3317 53.1684 16.2528 52.9752C16.174 52.782 16.0511 52.6098 15.8941 52.4723C13.0128 49.9494 10.7037 46.8401 9.12128 43.3526C7.53888 39.8651 6.71974 36.0797 6.71868 32.25C6.71868 17.4311 18.7748 5.375 33.5937 5.375C48.4126 5.375 60.4687 17.4311 60.4687 32.25C60.4687 47.0689 48.4126 59.125 33.5937 59.125H8.64579L15.7302 54.6167Z" fill="white"/>
<path d="M41.6562 69.875C43.1405 69.875 44.3438 68.6718 44.3438 67.1875C44.3438 65.7032 43.1405 64.5 41.6562 64.5C40.172 64.5 38.9688 65.7032 38.9688 67.1875C38.9688 68.6718 40.172 69.875 41.6562 69.875Z" fill="white"/>
<path d="M52.4062 69.875C53.8905 69.875 55.0938 68.6718 55.0938 67.1875C55.0938 65.7032 53.8905 64.5 52.4062 64.5C50.922 64.5 49.7188 65.7032 49.7188 67.1875C49.7188 68.6718 50.922 69.875 52.4062 69.875Z" fill="white"/>
<path d="M63.1562 69.875C64.6405 69.875 65.8438 68.6718 65.8438 67.1875C65.8438 65.7032 64.6405 64.5 63.1562 64.5C61.672 64.5 60.4688 65.7032 60.4688 67.1875C60.4688 68.6718 61.672 69.875 63.1562 69.875Z" fill="white"/>
</svg>
