<svg width="74" height="74" viewBox="0 0 74 74" fill="none" xmlns="http://www.w3.org/2000/svg">
<path d="M30.0019 19.6561C30.7333 19.6561 31.4465 19.8833 32.0432 20.3062C32.6398 20.7292 33.0903 21.327 33.3323 22.0171C33.5744 22.7072 33.5961 23.4555 33.3945 24.1585C33.1928 24.8614 32.7777 25.4844 32.2066 25.9412L28.1836 29.1595C28.0483 29.2679 27.939 29.4053 27.864 29.5615C27.7889 29.7178 27.75 29.889 27.75 30.0624V33.5311H30.0625V30.6181L33.6514 27.747C34.5966 26.9908 35.2835 25.9596 35.6172 24.796C35.951 23.6325 35.915 22.3939 35.5143 21.2517C35.1136 20.1095 34.368 19.1199 33.3805 18.4198C32.393 17.7197 31.2124 17.3436 30.0019 17.3436H28.9668C27.418 17.3454 25.9331 17.9614 24.838 19.0566C23.7428 20.1518 23.1268 21.6366 23.125 23.1854V25.4374H25.4375V23.1854C25.4385 22.2497 25.8107 21.3526 26.4724 20.691C27.134 20.0293 28.0311 19.6572 28.9668 19.6561H30.0019Z" fill="#36276E"/>
<path d="M30.0625 35.8436H27.75V38.1561H30.0625V35.8436Z" fill="#36276E"/>
<path d="M2.35864 52.3544C2.42862 52.5947 2.57466 52.8058 2.77484 52.956C2.97502 53.1062 3.21852 53.1874 3.46878 53.1874H20.6154C22.0789 58.3098 25.1046 62.8476 29.2706 66.168C33.7597 69.7613 39.3438 71.7091 45.0938 71.6874H70.5313C70.7816 71.6876 71.0253 71.6065 71.2256 71.4563C71.426 71.3062 71.5721 71.0951 71.6422 70.8547C71.7123 70.6144 71.7024 70.3578 71.6142 70.1235C71.5259 69.8892 71.364 69.6899 71.1528 69.5555L62.968 64.3475C66.0231 61.3303 68.2649 57.5889 69.4844 53.4719C70.7039 49.3548 70.8615 44.9961 69.9425 40.8017C69.0234 36.6073 67.0577 32.7138 64.2283 29.4839C61.399 26.254 57.7982 23.7928 53.7613 22.3295C51.2697 10.8987 41.0728 2.31238 28.9063 2.31238C14.88 2.31238 3.46878 13.7236 3.46878 27.7499C3.46951 31.1168 4.13843 34.4502 5.43677 37.5567C6.73511 40.6633 8.63705 43.4813 11.0324 45.8475L2.8473 51.0555C2.63626 51.19 2.47454 51.3893 2.38643 51.6235C2.29832 51.8577 2.28856 52.1142 2.35864 52.3544ZM68.2188 46.2499C68.2181 49.5453 67.5133 52.8025 66.1516 55.8035C64.7898 58.8044 62.8026 61.4797 60.323 63.6503C60.1879 63.7686 60.0822 63.9168 60.0143 64.0831C59.9464 64.2493 59.9182 64.4291 59.9318 64.6082C59.9455 64.7873 60.0007 64.9608 60.0931 65.1148C60.1855 65.2688 60.3124 65.3992 60.464 65.4957L66.5604 69.3749H45.0938C39.867 69.3948 34.7909 67.6244 30.7102 64.3583C27.098 61.4793 24.424 57.5907 23.0285 53.1874H28.9063C42.9326 53.1874 54.3438 41.7762 54.3438 27.7499C54.3434 26.8258 54.2931 25.9024 54.1929 24.9837C58.3589 26.762 61.9099 29.7263 64.4038 33.5076C66.8977 37.2889 68.2244 41.7202 68.2188 46.2499ZM13.5354 46.9957C13.6869 46.8992 13.8139 46.7689 13.9062 46.6148C13.9986 46.4608 14.0538 46.2874 14.0675 46.1083C14.0812 45.9293 14.053 45.7495 13.9851 45.5832C13.9172 45.4169 13.8115 45.2688 13.6764 45.1504C11.1972 42.9796 9.21023 40.3042 7.84863 37.3033C6.48703 34.3024 5.78219 31.0452 5.78128 27.7499C5.78128 14.9988 16.1552 4.62488 28.9063 4.62488C41.6574 4.62488 52.0313 14.9988 52.0313 27.7499C52.0313 40.501 41.6574 50.8749 28.9063 50.8749H7.43949L13.5354 46.9957Z" fill="#36276E"/>
<path d="M35.8438 60.1249C37.1209 60.1249 38.1562 59.0895 38.1562 57.8124C38.1562 56.5352 37.1209 55.4999 35.8438 55.4999C34.5666 55.4999 33.5312 56.5352 33.5312 57.8124C33.5312 59.0895 34.5666 60.1249 35.8438 60.1249Z" fill="#36276E"/>
<path d="M45.0938 60.1249C46.3709 60.1249 47.4062 59.0895 47.4062 57.8124C47.4062 56.5352 46.3709 55.4999 45.0938 55.4999C43.8166 55.4999 42.7812 56.5352 42.7812 57.8124C42.7812 59.0895 43.8166 60.1249 45.0938 60.1249Z" fill="#36276E"/>
<path d="M54.3438 60.1249C55.6209 60.1249 56.6562 59.0895 56.6562 57.8124C56.6562 56.5352 55.6209 55.4999 54.3438 55.4999C53.0666 55.4999 52.0312 56.5352 52.0312 57.8124C52.0312 59.0895 53.0666 60.1249 54.3438 60.1249Z" fill="#36276E"/>
</svg>
