<svg width="46" height="46" viewBox="0 0 46 46" fill="none" xmlns="http://www.w3.org/2000/svg">
<g clip-path="url(#clip0)">
<path d="M39.5346 0H37.5568C36.6875 0 36.6875 1.34785 37.5568 1.34785H39.5346C41.577 1.34785 43.2387 3.00355 43.2387 5.03863V20.6352C43.2387 22.6704 41.5771 24.3261 39.5346 24.3261H37.2915C37.1435 24.3261 36.9996 24.3748 36.882 24.4648L32.766 27.6132V25C32.766 24.6278 32.4644 24.3261 32.0921 24.3261H23.89C23.2183 24.3261 22.5728 24.1488 22.0034 23.8118V16.2465C22.0034 14.8295 21.2817 13.5775 20.1857 12.8368V5.03863C20.1857 3.00355 21.8474 1.34785 23.89 1.34785H33.3336C34.2028 1.34785 34.2028 0 33.3336 0H23.89C21.1042 0 18.8379 2.26035 18.8379 5.03863V12.2445C18.5293 12.1708 18.2078 12.1307 17.8769 12.1307H5.53998C3.26471 12.1307 1.41357 13.977 1.41357 16.2465V17.7018C1.41357 18.5711 2.76143 18.5711 2.76143 17.7018V16.2465C2.76143 14.7202 4.00783 13.4785 5.53998 13.4785H17.877C19.4092 13.4785 20.6557 14.7202 20.6557 16.2465V24.0801C20.6476 24.1396 20.6479 24.1995 20.6557 24.2585V28.5458C20.6557 28.6305 20.6506 28.7149 20.6429 28.7988H19.2531C17.7217 28.7988 16.445 29.9041 16.1803 31.3569C16.119 31.38 16.0601 31.4122 16.0056 31.4543L12.9913 33.7816V31.9877C12.9913 31.6156 12.6897 31.3138 12.3174 31.3138H5.53998C4.00783 31.3138 2.76143 30.0721 2.76143 28.5458V21.7453C2.76143 20.8761 1.41357 20.8761 1.41357 21.7453V28.5459C1.41357 30.8154 3.26471 32.6618 5.53998 32.6618H11.6436V35.1535C11.6436 35.6941 12.3 36.0184 12.7294 35.687L16.1291 33.062V40.6436C16.1291 42.3622 17.5306 43.7601 19.2532 43.7601H23.3888V45.3327C23.3888 45.8731 24.0453 46.1978 24.4746 45.8662L27.2023 43.7601H28.0081C29.7307 43.7601 31.1322 42.3621 31.1322 40.6436V39.4471C31.1322 38.5778 29.7843 38.5778 29.7843 39.4471V40.6436C29.7843 41.6189 28.9876 42.4123 28.0081 42.4123H26.9723C26.8233 42.4123 26.6784 42.4617 26.5605 42.5527L24.7366 43.9609V43.0861C24.7366 42.7139 24.435 42.4122 24.0627 42.4122H19.2531C18.2738 42.4122 17.4769 41.6188 17.4769 40.6436V31.9154C17.4769 30.9401 18.2737 30.1468 19.2531 30.1468H28.0081C28.9875 30.1468 29.7843 30.9402 29.7843 31.9154V35.2238C29.7843 36.0931 31.1322 36.0931 31.1322 35.2238V31.9155C31.1322 30.197 29.7307 28.799 28.0081 28.799H21.9958C22.0009 28.7148 22.0035 25.3109 22.0035 25.3109C22.5978 25.5499 23.2348 25.674 23.8901 25.674H31.4183V28.9772C31.4183 29.5164 32.0719 29.8411 32.5017 29.5125L37.5198 25.674H39.5347C42.3203 25.674 44.5867 23.4137 44.5867 20.6353V5.03863C44.5866 2.26035 42.3202 0 39.5346 0V0Z" fill="#FCDD1E"/>
<path d="M33.3962 4.97917C32.5405 4.76073 31.6685 5.43681 31.6685 6.321C31.6685 7.28705 31.3164 8.21806 30.6776 8.94203L28.8208 11.0432C28.7006 10.8587 28.4929 10.7366 28.2563 10.7366H24.6314C24.2592 10.7366 23.9575 11.0383 23.9575 11.4105V19.5663C23.9575 19.9385 24.2592 20.2403 24.6314 20.2403H28.2563C28.5286 20.2403 28.7626 20.0784 28.8689 19.8461C29.6028 20.2944 30.4532 20.5369 31.3184 20.5369H37.7245C38.7034 20.5369 39.5109 19.6875 39.465 18.7111C39.4446 18.2787 39.4669 12.4728 39.4669 12.3438C39.4669 11.3831 38.6852 10.6013 37.7265 10.6013L34.3952 10.5914L34.5331 10.2647C35.1635 8.77193 35.0597 7.04093 34.2558 5.63405C34.0682 5.30535 33.7628 5.07289 33.3962 4.97917C33.7628 5.07289 33.0294 4.88554 33.3962 4.97917C33.7628 5.07289 32.5405 4.76073 33.3962 4.97917ZM27.5823 18.8924H25.3054V12.0844H27.5823V18.8924ZM37.7245 11.9491C37.9421 11.9491 38.1191 12.1261 38.1191 12.3437C38.1191 12.472 38.1178 12.82 38.116 13.2918C38.106 15.8969 38.0994 18.3642 38.1186 18.7743C38.1256 18.9223 38.0536 19.021 38.0101 19.0666C37.9348 19.1455 37.8334 19.1889 37.7245 19.1889H31.3184C30.5548 19.1889 29.8075 18.9243 29.2139 18.4438L28.9302 18.2142V12.9548L31.688 9.83413C32.5446 8.86332 33.0163 7.61566 33.0163 6.32091C33.0163 6.28281 33.0684 6.27293 33.0856 6.30258C33.6824 7.34698 33.7594 8.63203 33.2915 9.74023L32.7596 10.9999C32.6718 11.2078 32.6939 11.4456 32.8182 11.6338C32.9427 11.8219 33.1529 11.9353 33.3784 11.9361L37.7245 11.9491Z" fill="#FCDD1E"/>
<path d="M7.18418 23.4075C6.8119 23.4075 6.51025 23.7092 6.51025 24.0814C6.51025 24.4536 6.8119 24.7553 7.18418 24.7553H9.17073L8.79962 26.9998C8.73888 27.367 8.98743 27.7139 9.35458 27.7747C9.39187 27.7809 9.4288 27.7838 9.46528 27.7838C9.78913 27.7838 10.0748 27.5498 10.1294 27.2197L10.5368 24.7554H12.1626L11.7915 26.9999C11.7308 27.3671 11.9793 27.714 12.3464 27.7748C12.3837 27.781 12.4207 27.7839 12.4572 27.7839C12.781 27.7839 13.0667 27.5499 13.1213 27.2198L13.5287 24.7555H16.2328C16.605 24.7555 16.9067 24.4538 16.9067 24.0816C16.9067 23.7094 16.605 23.4076 16.2328 23.4076H13.7515L14.0234 21.7636H16.2328C16.605 21.7636 16.9067 21.4619 16.9067 21.0897C16.9067 20.7175 16.605 20.4158 16.2328 20.4158H14.2462L14.6173 18.1713C14.6781 17.8041 14.4295 17.4572 14.0624 17.3964C13.6947 17.3355 13.3483 17.5842 13.2875 17.9514L12.8801 20.4157H11.2543L11.6254 18.1712C11.6862 17.804 11.4376 17.4571 11.0705 17.3963C10.7024 17.3354 10.3565 17.5841 10.2956 17.9513L9.88824 20.4156H7.18418C6.8119 20.4156 6.51025 20.7173 6.51025 21.0895C6.51025 21.4617 6.8119 21.7635 7.18418 21.7635H9.66539L9.39358 23.4075H7.18418ZM11.0316 21.7635H12.6574L12.3855 23.4075H10.7598L11.0316 21.7635Z" fill="#FCDD1E"/>
<path d="M23.6224 33.624C23.0782 33.176 22.3543 32.9992 21.628 33.1758C20.6974 33.4018 19.7583 34.2718 19.7583 35.7058C19.7583 36.5984 20.084 37.3731 20.7541 38.0743C21.3014 38.6472 22.0913 39.1919 23.3149 39.8407C23.4137 39.893 23.5221 39.9192 23.6306 39.9192C23.7391 39.9192 23.8475 39.893 23.9463 39.8407C26.0811 38.7089 27.5028 37.5727 27.5028 35.7058C27.5028 34.264 26.5304 33.4029 25.5666 33.1891C24.8425 33.0284 24.1405 33.199 23.6224 33.624ZM26.1549 35.7058C26.1549 36.7127 25.487 37.4574 23.6305 38.4793C21.7741 37.4573 21.1061 36.7127 21.1061 35.7058C21.1061 34.9566 21.5399 34.5842 21.946 34.4855C22.0208 34.4674 22.101 34.4572 22.1834 34.4572C22.4888 34.4572 22.8246 34.5982 23.0316 34.9996C23.1496 35.228 23.3881 35.3696 23.6439 35.3643C23.9008 35.3592 24.1325 35.2084 24.2412 34.9755C24.4593 34.5081 24.9179 34.4259 25.2744 34.505C25.7002 34.5993 26.1549 34.9644 26.1549 35.7058Z" fill="#FCDD1E"/>
</g>
<defs>
<clipPath id="clip0">
<rect width="46" height="46" fill="white"/>
</clipPath>
</defs>
</svg>
