<svg width="74" height="74" viewBox="0 0 74 74" fill="none" xmlns="http://www.w3.org/2000/svg">
<g clip-path="url(#clip0)">
<path d="M72.3735 35.3842C72.3695 15.838 56.5208 -0.00395129 36.974 7.39262e-07C17.4279 0.00395277 1.58589 15.8533 1.58984 35.3994C1.59323 50.796 11.5495 64.4237 26.2166 69.1068C26.3566 69.1509 26.5023 69.1734 26.6485 69.1729C26.9274 69.1723 27.2007 69.0978 27.4406 68.9561C27.7528 68.7715 27.986 68.4779 28.0955 68.1318L37.0333 39.8037C39.4768 39.7913 41.4472 37.8 41.4342 35.3571C41.4218 32.9136 39.4311 30.9432 36.9876 30.9557C36.3304 30.9585 35.6817 31.1098 35.0912 31.3983L23.2836 19.5891C22.6976 19.0234 21.7644 19.0397 21.1987 19.6252C20.6465 20.1971 20.6465 21.1027 21.1987 21.6746L33 33.4895C32.0944 35.3379 32.6121 37.5691 34.2404 38.8292L25.7243 65.8227C8.89432 59.6231 0.276642 40.9543 6.47624 24.1243C12.6758 7.29431 31.3447 -1.32336 48.1746 4.87624C65.0046 11.0758 73.6223 29.7452 67.4227 46.5746C64.3938 54.7971 58.1704 61.4467 50.1665 65.0131L49.2462 60.6788C49.078 59.8822 48.2949 59.373 47.4983 59.5418C47.247 59.5954 47.0139 59.7134 46.8219 59.8845L37.9491 67.806C37.3404 68.3475 37.2862 69.2796 37.8282 69.8882C38.0044 70.0858 38.2302 70.2326 38.4831 70.3133L49.8113 73.9289C50.5865 74.1778 51.417 73.7516 51.666 72.9759C51.745 72.7308 51.758 72.47 51.7049 72.2182L50.8005 67.9653C63.8992 62.4431 72.4039 49.5991 72.3735 35.3842ZM36.9819 33.9095C37.7961 33.9095 38.4566 34.5701 38.4566 35.3842C38.4566 36.1989 37.7961 36.8589 36.9819 36.8589C36.1673 36.8589 35.5073 36.1989 35.5073 35.3842C35.5073 34.5701 36.1673 33.9095 36.9819 33.9095ZM41.839 68.2825L46.8897 63.7772L48.2836 70.3455L41.839 68.2825Z" fill="#36276E"/>
<path d="M35.5073 7.36542V10.3148C35.5073 11.1294 36.1673 11.7894 36.9819 11.7894C37.7961 11.7894 38.4566 11.1294 38.4566 10.3148V7.36542C38.4566 6.5513 37.7961 5.89075 36.9819 5.89075C36.1673 5.89075 35.5073 6.5513 35.5073 7.36542Z" fill="#36276E"/>
<path d="M8.96307 33.9095C8.14839 33.9095 7.4884 34.5701 7.4884 35.3842C7.4884 36.1989 8.14839 36.8589 8.96307 36.8589H11.9124C12.7271 36.8589 13.3871 36.1989 13.3871 35.3842C13.3871 34.5701 12.7271 33.9095 11.9124 33.9095H8.96307Z" fill="#36276E"/>
<path d="M65 36.8589C65.8147 36.8589 66.4747 36.1989 66.4747 35.3842C66.4747 34.5701 65.8147 33.9095 65 33.9095H62.0507C61.2365 33.9095 60.576 34.5701 60.576 35.3842C60.576 36.1989 61.2365 36.8589 62.0507 36.8589H65Z" fill="#36276E"/>
</g>
<defs>
<clipPath id="clip0">
<rect width="74" height="74" fill="white"/>
</clipPath>
</defs>
</svg>
