<svg width="86" height="86" viewBox="0 0 86 86" fill="none" xmlns="http://www.w3.org/2000/svg">
<g clip-path="url(#clip0)">
<path d="M84.1097 41.1222C84.1051 18.4064 65.6863 -0.00459204 42.9698 8.59143e-07C20.254 0.00459376 1.84306 18.4241 1.84766 41.1399C1.85159 59.0331 13.4224 74.8708 30.468 80.3133C30.6307 80.3645 30.8 80.3908 30.9699 80.3901C31.294 80.3895 31.6116 80.3028 31.8904 80.1382C32.2533 79.9236 32.5243 79.5824 32.6516 79.1802L43.0387 46.2583C45.8784 46.2439 48.1683 43.9297 48.1532 41.0907C48.1388 38.2509 45.8253 35.9611 42.9856 35.9755C42.2218 35.9788 41.4679 36.1546 40.7816 36.4899L27.0594 22.7657C26.3783 22.1082 25.2937 22.1273 24.6363 22.8077C23.9946 23.4723 23.9946 24.5247 24.6363 25.1894L38.3513 38.9202C37.2989 41.0684 37.9006 43.6614 39.7928 45.1259L29.8958 76.4966C10.3366 69.2917 0.321503 47.5955 7.52644 28.0363C14.7314 8.47717 36.4276 -1.53796 55.9867 5.66698C75.5459 12.8719 85.5611 34.5688 78.3561 54.1273C74.836 63.6831 67.6035 71.411 58.3016 75.5558L57.2321 70.5187C57.0365 69.5929 56.1265 69.001 55.2007 69.1972C54.9087 69.2596 54.6377 69.3967 54.4147 69.5955L44.103 78.8016C43.3956 79.4308 43.3327 80.5141 43.9625 81.2214C44.1673 81.4511 44.4297 81.6217 44.7236 81.7155L57.8889 85.9173C58.7897 86.2067 59.7549 85.7113 60.0442 84.8098C60.1361 84.525 60.1512 84.2219 60.0895 83.9293L59.0384 78.9866C74.2612 72.5691 84.1451 57.6422 84.1097 41.1222ZM42.979 39.4084C43.9251 39.4084 44.6928 40.176 44.6928 41.1222C44.6928 42.069 43.9251 42.836 42.979 42.836C42.0322 42.836 41.2652 42.069 41.2652 41.1222C41.2652 40.176 42.0322 39.4084 42.979 39.4084ZM48.6237 79.3554L54.4934 74.1195L56.1134 81.7529L48.6237 79.3554Z" fill="white"/>
<path d="M41.2651 8.55988V11.9875C41.2651 12.9343 42.0322 13.7013 42.9789 13.7013C43.9251 13.7013 44.6927 12.9343 44.6927 11.9875V8.55988C44.6927 7.61374 43.9251 6.84607 42.9789 6.84607C42.0322 6.84607 41.2651 7.61374 41.2651 8.55988Z" fill="white"/>
<path d="M10.4167 39.4083C9.46989 39.4083 8.70288 40.176 8.70288 41.1221C8.70288 42.0689 9.46989 42.8359 10.4167 42.8359H13.8443C14.7911 42.8359 15.5581 42.0689 15.5581 41.1221C15.5581 40.176 14.7911 39.4083 13.8443 39.4083H10.4167Z" fill="white"/>
<path d="M75.5406 42.8359C76.4874 42.8359 77.2544 42.0689 77.2544 41.1221C77.2544 40.176 76.4874 39.4083 75.5406 39.4083H72.113C71.1668 39.4083 70.3992 40.176 70.3992 41.1221C70.3992 42.0689 71.1668 42.8359 72.113 42.8359H75.5406Z" fill="white"/>
</g>
<defs>
<clipPath id="clip0">
<rect width="86" height="86" fill="white"/>
</clipPath>
</defs>
</svg>
