<svg width="46" height="46" viewBox="0 0 46 46" fill="none" xmlns="http://www.w3.org/2000/svg">
<path d="M12.4628 40.6333H10.7333V42.1666H17.6333V40.6333H14.0639L15.9038 34.5H17.6333V32.9666H3.06667C2.21989 32.9666 1.53333 32.2801 1.53333 31.4333V29.9H17.6333V28.3666H1.53333V6.89998C1.53333 6.0532 2.21989 5.36665 3.06667 5.36665H35.2667C36.1134 5.36665 36.8 6.0532 36.8 6.89998V13.0333H38.3333V6.89998C38.3333 5.20643 36.9602 3.83331 35.2667 3.83331H3.06667C1.37311 3.83331 0 5.20643 0 6.89998V31.4333C0 33.1269 1.37311 34.5 3.06667 34.5H14.3028L12.4628 40.6333Z" fill="#FCDD1E"/>
<path d="M33.7336 11.5V13.0333H35.2669V10.7333C35.2669 10.31 34.9236 9.96667 34.5002 9.96667H3.83356C3.41017 9.96667 3.06689 10.31 3.06689 10.7333V19.9333C3.06689 20.3567 3.41017 20.7 3.83356 20.7H17.6336V19.1667H4.60023V11.5H33.7336Z" fill="#FCDD1E"/>
<path d="M13.0336 26.8333V23C13.0336 22.5766 12.6903 22.2333 12.2669 22.2333H3.83356C3.41017 22.2333 3.06689 22.5766 3.06689 23V26.8333H4.60023V23.7667H11.5002V26.8333H13.0336Z" fill="#FCDD1E"/>
<path d="M14.5669 23V26.8333H16.1002V23.7667H17.6336V22.2333H15.3336C14.9102 22.2333 14.5669 22.5766 14.5669 23Z" fill="#FCDD1E"/>
<path d="M3.06689 6.90002H4.60023V8.43336H3.06689V6.90002Z" fill="#FCDD1E"/>
<path d="M6.1333 6.90002H7.66663V8.43336H6.1333V6.90002Z" fill="#FCDD1E"/>
<path d="M9.2002 6.90002H10.7335V8.43336H9.2002V6.90002Z" fill="#FCDD1E"/>
<path d="M40.6332 20.7V16.8667C40.6332 15.5965 39.6033 14.5667 38.3332 14.5667H21.4665C20.1963 14.5667 19.1665 15.5965 19.1665 16.8667V39.8667C19.1665 41.1368 20.1963 42.1667 21.4665 42.1667H32.1998V40.6333H21.4665C21.0431 40.6333 20.6998 40.29 20.6998 39.8667V39.1H32.1998V37.5667H20.6998V16.8667C20.6998 16.4433 21.0431 16.1 21.4665 16.1H38.3332C38.7566 16.1 39.0998 16.4433 39.0998 16.8667V20.7H40.6332Z" fill="#FCDD1E"/>
<path d="M23 17.6334H25.3V19.1667H23V17.6334Z" fill="#FCDD1E"/>
<path d="M26.8335 17.6334H29.1335V19.1667H26.8335V17.6334Z" fill="#FCDD1E"/>
<path d="M30.6665 17.6334H32.9665V19.1667H30.6665V17.6334Z" fill="#FCDD1E"/>
<path d="M34.5 17.6334H36.8V19.1667H34.5V17.6334Z" fill="#FCDD1E"/>
<path d="M23.7667 22.2333H33.7334V20.7H23.0001C22.5767 20.7 22.2334 21.0433 22.2334 21.4667V26.8333C22.2334 27.2567 22.5767 27.6 23.0001 27.6H32.2001V26.0667H23.7667V22.2333Z" fill="#FCDD1E"/>
<path d="M32.2001 30.6667V29.1334H23.0001C22.5767 29.1334 22.2334 29.4766 22.2334 29.9V35.2667C22.2334 35.6901 22.5767 36.0334 23.0001 36.0334H32.2001V34.5H23.7667V30.6667H32.2001Z" fill="#FCDD1E"/>
<path d="M43.7001 22.2333H36.0334C34.7632 22.2333 33.7334 23.2632 33.7334 24.5333V39.8667C33.7334 41.1368 34.7632 42.1667 36.0334 42.1667H43.7001C44.9702 42.1667 46.0001 41.1368 46.0001 39.8667V24.5333C46.0001 23.2632 44.9702 22.2333 43.7001 22.2333ZM44.4667 39.8667C44.4667 40.2901 44.1235 40.6333 43.7001 40.6333H36.0334C35.61 40.6333 35.2667 40.2901 35.2667 39.8667V39.1H44.4667V39.8667ZM44.4667 37.5667H35.2667V24.5333C35.2667 24.1099 35.61 23.7667 36.0334 23.7667H43.7001C44.1235 23.7667 44.4667 24.1099 44.4667 24.5333V37.5667Z" fill="#FCDD1E"/>
<path d="M42.1665 25.3H37.5665C37.1431 25.3 36.7998 25.6433 36.7998 26.0667V29.1333C36.7998 29.5567 37.1431 29.9 37.5665 29.9H42.1665C42.5899 29.9 42.9331 29.5567 42.9331 29.1333V26.0667C42.9331 25.6433 42.5899 25.3 42.1665 25.3ZM41.3998 28.3667H38.3331V26.8333H41.3998V28.3667Z" fill="#FCDD1E"/>
<path d="M42.1665 31.4333H37.5665C37.1431 31.4333 36.7998 31.7766 36.7998 32.2V35.2667C36.7998 35.6901 37.1431 36.0333 37.5665 36.0333H42.1665C42.5899 36.0333 42.9331 35.6901 42.9331 35.2667V32.2C42.9331 31.7766 42.5899 31.4333 42.1665 31.4333ZM41.3998 34.5H38.3331V32.9667H41.3998V34.5Z" fill="#FCDD1E"/>
</svg>
