<?xml version="1.0" encoding="utf-8"?>
<!-- Generator: Adobe Illustrator 22.0.0, SVG Export Plug-In . SVG Version: 6.00 Build 0)  -->
<svg version="1.1" id="Capa_1" xmlns="http://www.w3.org/2000/svg" xmlns:xlink="http://www.w3.org/1999/xlink" x="0px" y="0px"
	 viewBox="0 0 674.9 165.9" style="enable-background:new 0 0 674.9 165.9;" xml:space="preserve">
<style type="text/css">
	.st0{display:none;fill:#38007A;}
	.st1{clip-path:url(#SVGID_2_);}
	.st2{fill:#FFDE1A;}
	.st3{fill:#FFFFFF;}
	.st4{fill:#F7971D;}
	.st5{fill:#F6FBFD;}
	.st6{fill:#38007A;}
	.st7{fill:#F7E850;}
</style>
<rect x="-1079.9" class="st0" width="1059.9" height="954"/>
<g>
	<defs>
		<rect id="SVGID_1_" x="-1081.1" width="1061.1" height="954"/>
	</defs>
	<clipPath id="SVGID_2_">
		<use xlink:href="#SVGID_1_"  style="display:none;overflow:visible;"/>
	</clipPath>
	<g class="st1">
		<path class="st2" d="M-454.6,517v-85.2c0-0.8,0.3-1.7,1-2.1c0.1,0,0.1-0.1,0.2-0.1c0.5-0.5,1.1-0.8,1.8-0.8h21.5
			c0.7,0,1.3,0.3,1.8,0.8c0.1,0.1,0.1,0.1,0.2,0.1c0.7,0.4,1,1.3,1,2.1V517c0,2.2-2.3,4-5.2,4h-17.1
			C-452.3,521-454.6,519.2-454.6,517"/>
		<path class="st3" d="M-435.2,438.3c0,3-2.4,5.4-5.4,5.4c-3,0-5.4-2.4-5.4-5.4c0-3,2.4-5.4,5.4-5.4
			C-437.6,432.9-435.2,435.3-435.2,438.3"/>
		<path class="st4" d="M-436.2,438.3c0,2.4-2,4.4-4.4,4.4c-2.4,0-4.4-2-4.4-4.4c0-2.4,2-4.4,4.4-4.4
			C-438.2,433.9-436.2,435.9-436.2,438.3"/>
		<path class="st5" d="M-437.5,438.3c0,1.7-1.4,3.1-3.1,3.1c-1.7,0-3.1-1.4-3.1-3.1c0-1.7,1.4-3.1,3.1-3.1
			C-438.9,435.3-437.5,436.6-437.5,438.3"/>
		<path class="st6" d="M-435.2,438.3c0,3-2.4,5.4-5.4,5.4c-3,0-5.4-2.4-5.4-5.4c0-3,2.4-5.4,5.4-5.4
			C-437.6,432.9-435.2,435.3-435.2,438.3"/>
		<path class="st7" d="M-436.2,438.3c0,2.4-2,4.4-4.4,4.4c-2.4,0-4.4-2-4.4-4.4c0-2.4,2-4.4,4.4-4.4
			C-438.2,433.9-436.2,435.9-436.2,438.3"/>
		<path class="st6" d="M-437.5,438.3c0,1.7-1.4,3.1-3.1,3.1c-1.7,0-3.1-1.4-3.1-3.1c0-1.7,1.4-3.1,3.1-3.1
			C-438.9,435.3-437.5,436.6-437.5,438.3"/>
		<path class="st3" d="M-430,399.3l-11.7,15.7l1.6,8l0.3,1.5l9.3-1.4l12.6-14.6L-430,399.3z M-436.5,421.9c-1.2,0-2.3-1-2.3-2.3
			s1-2.3,2.3-2.3c1.2,0,2.3,1,2.3,2.3S-435.3,421.9-436.5,421.9"/>
		<path class="st3" d="M-438.8,435.8l-0.1,0.2l-0.2,0.6l-0.9,0.5l1.3,0.5l0.3-0.1c0,0,0.2-0.3,0.6-0.7c0,0,0,0,0,0
			C-438.1,436.4-438.4,436-438.8,435.8"/>
		<path class="st3" d="M-438.8,437.6l-1.3-0.5l0.9-0.5l0.2-0.6c-0.4,0.4-0.4,0.8-1.4,0.9c-0.8,0.1-1-0.8-2.2-4
			c-0.5-1.4-0.5-2.8-0.4-3.7c0.1-0.9,0.1-0.7,1-2.7l0.4-0.3c-0.4-0.4-0.7-0.7-0.7-0.9c0-0.3,0.6-0.6,0.9-0.5c0.2,0,0.4,0.3,0.8,0.5
			l0.8-0.8l1.1-0.2l-1-1h-0.3c0,0-5,2.2-4,7.7c1,5.5,2.7,7,3.3,7c0.6,0,1.5,0.8,2.9-1.2c0,0,0,0,0,0c-0.3,0.5-0.6,0.7-0.6,0.7
			L-438.8,437.6z"/>
		<path class="st3" d="M-442.4,425.6c0,0.2,0.4,0.2,0.8,0.6c0.5,0.5,1.2,1.2,1.6,1.6c0.3,0.3,0.5,0.6,0.7,1h1.4
			c-0.9-1.4-2.1-2.7-2.9-3.5c-0.3-0.3-0.8-0.7-0.9-0.7C-441.8,424.5-442.4,425.3-442.4,425.6"/>
		<polygon class="st2" points="-789.2,422 -821.8,422 -821.8,521.1 -850.9,521.1 -850.9,422 -883.5,422 -883.5,394.1 -789.2,394.1 
					"/>
		<path class="st2" d="M-700.6,430.4v90.7h-27.2v-8.5c-6,6.9-14.9,11.1-27,11.1c-23.8,0-43.4-20.9-43.4-47.9
			c0-27,19.6-47.9,43.4-47.9c12.2,0,21,4.2,27,11.1v-8.5H-700.6z M-727.9,475.7c0-13.6-9.1-22.1-21.6-22.1
			c-12.5,0-21.6,8.5-21.6,22.1c0,13.6,9.1,22.1,21.6,22.1C-736.9,497.9-727.9,489.3-727.9,475.7"/>
		<path class="st2" d="M-587.6,430.4v86.2c0,30.5-23.8,43.4-47.9,43.4c-18.9,0-34.7-7.1-43-22l23.2-13.4c3.4,6.4,8.7,11.4,20.7,11.4
			c12.7,0,20.5-6.5,20.5-19.4v-8.3c-6,7.4-14.7,11.8-26.5,11.8c-25.8,0-44.6-21-44.6-46.1c0-25,18.9-46.1,44.6-46.1
			c11.8,0,20.5,4.4,26.5,11.8v-9.3H-587.6z M-614.1,473.9c0-12.5-9.1-21-22-21c-12.9,0-22,8.5-22,21c0,12.5,9.1,21,22,21
			C-623.2,495-614.1,486.4-614.1,473.9"/>
		<path class="st2" d="M-474.6,430.4v86.2c0,30.5-23.8,43.4-47.9,43.4c-18.9,0-34.7-7.1-43-22l23.2-13.4c3.4,6.4,8.7,11.4,20.7,11.4
			c12.7,0,20.5-6.5,20.5-19.4v-8.3c-6,7.4-14.7,11.8-26.5,11.8c-25.8,0-44.6-21-44.6-46.1c0-25,18.9-46.1,44.6-46.1
			c11.8,0,20.5,4.4,26.5,11.8v-9.3H-474.6z M-501.1,473.9c0-12.5-9.1-21-22-21c-12.9,0-22,8.5-22,21c0,12.5,9.1,21,22,21
			C-510.1,495-501.1,486.4-501.1,473.9"/>
		<path class="st2" d="M-320.4,465.4v55.7h-27.2v-51.7c0-11.3-7.1-16.5-15.8-16.5c-10,0-16.9,5.8-16.9,18.7v49.5h-27.2v-90.7h27.2
			v8.5c4.9-6.7,14-11.1,25.9-11.1C-336,427.8-320.4,440.9-320.4,465.4"/>
		<path class="st2" d="M-208.6,430.4v86.2c0,30.5-23.8,43.4-47.9,43.4c-18.9,0-34.7-7.1-43-22l23.2-13.4c3.4,6.4,8.7,11.4,20.7,11.4
			c12.7,0,20.5-6.5,20.5-19.4v-8.3c-6,7.4-14.7,11.8-26.5,11.8c-25.8,0-44.6-21-44.6-46.1c0-25,18.9-46.1,44.6-46.1
			c11.8,0,20.5,4.4,26.5,11.8v-9.3H-208.6z M-235.1,473.9c0-12.5-9.1-21-22-21c-12.9,0-22,8.5-22,21c0,12.5,9.1,21,22,21
			C-244.2,495-235.1,486.4-235.1,473.9"/>
	</g>
</g>
<g>
	<path class="st2" d="M428.9,122.9V37.7c0-0.8,0.3-1.7,1-2.1c0.1,0,0.1-0.1,0.2-0.1c0.5-0.5,1.1-0.8,1.8-0.8h21.5
		c0.7,0,1.3,0.3,1.8,0.8c0.1,0.1,0.1,0.1,0.2,0.1c0.7,0.4,1,1.3,1,2.1v85.2c0,2.2-2.3,4-5.2,4h-17.1
		C431.3,126.9,428.9,125.1,428.9,122.9"/>
	<path class="st3" d="M448.3,44.2c0,3-2.4,5.4-5.4,5.4c-3,0-5.4-2.4-5.4-5.4c0-3,2.4-5.4,5.4-5.4C445.9,38.8,448.3,41.3,448.3,44.2"
		/>
	<path class="st4" d="M447.3,44.2c0,2.4-2,4.4-4.4,4.4c-2.4,0-4.4-2-4.4-4.4c0-2.4,2-4.4,4.4-4.4C445.4,39.9,447.3,41.8,447.3,44.2"
		/>
	<path class="st5" d="M446,44.2c0,1.7-1.4,3.1-3.1,3.1c-1.7,0-3.1-1.4-3.1-3.1c0-1.7,1.4-3.1,3.1-3.1C444.6,41.2,446,42.5,446,44.2"
		/>
	<path class="st6" d="M448.3,44.2c0,3-2.4,5.4-5.4,5.4c-3,0-5.4-2.4-5.4-5.4c0-3,2.4-5.4,5.4-5.4C445.9,38.8,448.3,41.3,448.3,44.2"
		/>
	<path class="st7" d="M447.3,44.2c0,2.4-2,4.4-4.4,4.4c-2.4,0-4.4-2-4.4-4.4c0-2.4,2-4.4,4.4-4.4C445.4,39.9,447.3,41.8,447.3,44.2"
		/>
	<path class="st6" d="M446,44.2c0,1.7-1.4,3.1-3.1,3.1c-1.7,0-3.1-1.4-3.1-3.1c0-1.7,1.4-3.1,3.1-3.1C444.6,41.2,446,42.5,446,44.2"
		/>
	<path class="st3" d="M453.5,5.2l-11.7,15.7l1.6,8l0.3,1.5l9.3-1.4l12.6-14.6L453.5,5.2z M447,27.9c-1.2,0-2.3-1-2.3-2.3
		s1-2.3,2.3-2.3c1.2,0,2.3,1,2.3,2.3S448.3,27.9,447,27.9"/>
	<path class="st3" d="M444.8,41.7l-0.1,0.2l-0.2,0.6l-0.9,0.5l1.3,0.5l0.3-0.1c0,0,0.2-0.3,0.6-0.7c0,0,0,0,0,0
		C445.4,42.3,445.2,42,444.8,41.7"/>
	<path class="st3" d="M444.8,43.6l-1.3-0.5l0.9-0.5l0.2-0.6c-0.4,0.4-0.4,0.8-1.4,0.9c-0.8,0.1-1-0.8-2.2-4
		c-0.5-1.4-0.5-2.8-0.4-3.7c0.1-0.9,0.1-0.7,1-2.7l0.4-0.3c-0.4-0.4-0.7-0.7-0.7-0.9c0-0.3,0.6-0.6,0.9-0.5c0.2,0,0.4,0.3,0.8,0.5
		l0.8-0.8l1.1-0.2l-1-1h-0.3c0,0-5,2.2-4,7.7c1,5.5,2.7,7,3.3,7c0.6,0,1.5,0.8,2.9-1.2c0,0,0,0,0,0c-0.3,0.5-0.6,0.7-0.6,0.7
		L444.8,43.6z"/>
	<path class="st3" d="M441.2,31.5c0,0.2,0.4,0.2,0.8,0.6c0.5,0.5,1.2,1.2,1.6,1.6c0.3,0.3,0.5,0.6,0.7,1h1.4
		c-0.9-1.4-2.1-2.7-2.9-3.5c-0.3-0.3-0.8-0.7-0.9-0.7C441.7,30.4,441.1,31.2,441.2,31.5"/>
	<polygon class="st2" points="94.4,27.9 61.7,27.9 61.7,127 32.7,127 32.7,27.9 0,27.9 0,0 94.4,0 	"/>
	<path class="st2" d="M182.9,36.3V127h-27.2v-8.5c-6,6.9-14.9,11.1-27,11.1c-23.8,0-43.4-20.9-43.4-47.9c0-27,19.6-47.9,43.4-47.9
		c12.2,0,21,4.2,27,11.1v-8.5H182.9z M155.7,81.6c0-13.6-9.1-22.1-21.6-22.1c-12.5,0-21.6,8.5-21.6,22.1c0,13.6,9.1,22.1,21.6,22.1
		C146.6,103.8,155.7,95.3,155.7,81.6"/>
	<path class="st2" d="M295.9,36.3v86.2c0,30.5-23.8,43.4-47.9,43.4c-18.9,0-34.7-7.1-43-22l23.2-13.4c3.4,6.4,8.7,11.4,20.7,11.4
		c12.7,0,20.5-6.5,20.5-19.4v-8.3c-6,7.4-14.7,11.8-26.5,11.8c-25.8,0-44.6-21-44.6-46.1c0-25,18.9-46.1,44.6-46.1
		c11.8,0,20.5,4.4,26.5,11.8v-9.3H295.9z M269.4,79.8c0-12.5-9.1-21-22-21c-12.9,0-22,8.5-22,21c0,12.5,9.1,21,22,21
		C260.4,100.9,269.4,92.4,269.4,79.8"/>
	<path class="st2" d="M409,36.3v86.2c0,30.5-23.8,43.4-47.9,43.4c-18.9,0-34.7-7.1-43-22l23.2-13.4c3.4,6.4,8.7,11.4,20.7,11.4
		c12.7,0,20.5-6.5,20.5-19.4v-8.3c-6,7.4-14.7,11.8-26.5,11.8c-25.8,0-44.6-21-44.6-46.1c0-25,18.9-46.1,44.6-46.1
		c11.8,0,20.5,4.4,26.5,11.8v-9.3H409z M382.5,79.8c0-12.5-9.1-21-22-21c-12.9,0-22,8.5-22,21c0,12.5,9.1,21,22,21
		C373.4,100.9,382.5,92.4,382.5,79.8"/>
	<path class="st2" d="M563.2,71.3V127H536V75.3c0-11.3-7.1-16.5-15.8-16.5c-10,0-16.9,5.8-16.9,18.7V127h-27.2V36.3h27.2v8.5
		c4.9-6.7,14-11.1,25.9-11.1C547.6,33.7,563.2,46.8,563.2,71.3"/>
	<path class="st2" d="M674.9,36.3v86.2c0,30.5-23.8,43.4-47.9,43.4c-18.9,0-34.7-7.1-43-22l23.2-13.4c3.4,6.4,8.7,11.4,20.7,11.4
		c12.7,0,20.5-6.5,20.5-19.4v-8.3c-6,7.4-14.7,11.8-26.5,11.8c-25.8,0-44.6-21-44.6-46.1c0-25,18.9-46.1,44.6-46.1
		c11.8,0,20.5,4.4,26.5,11.8v-9.3H674.9z M648.4,79.8c0-12.5-9.1-21-22-21c-12.9,0-22,8.5-22,21c0,12.5,9.1,21,22,21
		C639.4,100.9,648.4,92.4,648.4,79.8"/>
</g>
</svg>
